<svg version="1.1" id="Layer_1" xmlns="http://www.w3.org/2000/svg" xmlns:xlink="http://www.w3.org/1999/xlink" x="0px" y="0px"
	 width="100%" viewBox="0 0 400 400" enable-background="new 0 0 400 400" xml:space="preserve">
<path fill="#F79321" opacity="1.000000" stroke="none" 
	d="
M181.000000,401.000000 
	C120.685364,401.000000 60.870724,401.000000 1.028042,401.000000 
	C1.028042,267.727020 1.028042,134.454041 1.028042,1.090532 
	C134.231262,1.090532 267.462616,1.090532 400.846985,1.090532 
	C400.846985,134.333206 400.846985,267.666565 400.846985,401.000000 
	C327.787445,401.000000 254.643723,401.000000 181.000000,401.000000 
M321.598846,216.805725 
	C322.387756,215.850800 323.176636,214.895874 324.245575,213.574799 
	C324.449890,213.342773 324.680267,213.140396 325.547791,212.763519 
	C326.000671,211.164642 326.453552,209.565750 327.074158,207.290710 
	C327.879333,206.278687 328.771088,205.323196 329.475098,204.245087 
	C333.001648,198.844666 336.479034,193.412140 340.759247,187.961853 
	C341.824463,186.651886 343.899780,185.206604 343.746185,184.059906 
	C343.418884,181.616760 341.934662,179.328583 340.913269,176.236694 
	C339.612396,174.524017 338.311523,172.811356 336.882874,170.403748 
	C336.587006,169.274353 336.291138,168.144958 336.182556,166.448120 
	C335.115906,165.968460 334.052155,165.079041 332.982117,165.071396 
	C319.705536,164.976669 306.427338,164.951324 293.151672,165.098282 
	C291.760773,165.113663 290.383331,166.341995 288.873169,167.656128 
	C288.564758,168.488907 288.256317,169.321686 287.263336,170.329193 
	C284.757324,170.534332 282.245697,170.689163 279.748016,170.968735 
	C278.711029,171.084824 277.423767,171.156326 276.729889,171.780884 
	C273.030182,175.110931 273.386597,186.179291 277.092285,189.882416 
	C277.092285,189.882416 277.227631,189.830200 277.200104,190.510590 
	C277.665405,191.097565 278.111206,192.178345 278.598969,192.197632 
	C286.226440,192.499344 293.866852,192.526825 301.486542,192.942291 
	C303.830017,193.070053 306.120392,194.171967 309.295837,195.071701 
	C307.002991,196.667648 305.892700,197.104095 305.285034,197.916504 
	C300.260010,204.634201 295.461121,211.524536 290.326630,218.155762 
	C286.090088,223.627304 281.138794,228.574448 277.215607,234.246033 
	C275.542114,236.665283 275.571686,240.318405 275.034821,243.446442 
	C274.728424,245.231781 275.130554,247.159058 274.709717,248.900681 
	C273.308868,254.698410 275.442352,256.555084 281.545349,256.438263 
	C297.855865,256.126190 314.189301,255.965515 330.487701,256.514038 
	C338.442078,256.781677 339.681122,257.265778 340.274628,249.427963 
	C340.653381,244.426071 343.515839,238.059525 336.610046,233.535217 
	C331.812286,230.986847 325.301727,232.078598 321.185944,236.005844 
	C317.480774,235.654404 313.763397,235.397079 310.074738,234.918427 
	C307.612610,234.598953 306.342926,233.073914 307.933990,230.819138 
	C309.688446,228.332779 311.923248,226.185364 314.424255,224.183746 
	C316.587769,221.767319 318.751251,219.350891 320.948669,216.973007 
	C320.948669,216.973007 320.943268,216.922348 321.598846,216.805725 
M224.054916,149.915039 
	C222.263428,151.904053 220.586609,154.013596 218.652969,155.853210 
	C215.898941,158.473312 212.320694,160.456207 210.224243,163.491577 
	C205.584885,170.208679 201.751068,177.476517 197.368042,184.379639 
	C195.995499,186.541351 193.291809,187.975952 192.286423,190.229263 
	C189.856567,195.675140 188.120941,201.427444 185.988556,207.011566 
	C185.385635,208.590439 184.379440,210.015289 183.558197,211.510773 
	C183.171402,211.313660 182.784622,211.116531 182.397827,210.919403 
	C182.500092,210.153336 182.412445,209.293915 182.735580,208.636398 
	C184.763794,204.509277 185.772980,200.652390 181.848587,196.815552 
	C180.966293,195.952911 181.305725,193.682541 181.339706,192.065643 
	C181.631546,178.183746 182.292130,164.300186 182.161484,150.423523 
	C182.110046,144.961090 178.007492,141.495270 172.581787,141.208633 
	C166.099991,140.866196 159.584366,140.963760 153.092529,141.165054 
	C151.644073,141.209991 149.029312,142.431061 148.998016,143.194519 
	C148.767517,148.817642 141.837494,154.136490 148.002533,160.025024 
	C149.575729,161.527649 151.403412,162.761337 153.008438,164.233826 
	C154.630386,165.721878 157.170120,167.173141 157.475449,168.954575 
	C158.446426,174.619583 158.894791,180.429092 158.925995,186.186127 
	C158.963760,193.158890 158.190231,200.132507 158.090729,207.110367 
	C157.933929,218.107361 157.936279,229.109772 158.092804,240.106735 
	C158.167877,245.381729 158.750198,250.649490 159.176147,257.017212 
	C168.000977,256.574982 176.236908,256.162231 185.826248,255.681686 
	C178.515686,243.020401 184.427124,230.637466 182.501175,218.562668 
	C184.403259,221.739960 186.034332,225.016617 186.554733,228.461090 
	C188.510193,241.404083 198.613678,247.213440 208.107819,253.432159 
	C216.210632,258.739502 225.571335,258.631104 234.730606,257.883118 
	C245.597748,256.995605 255.391876,253.166046 262.233978,244.205261 
	C264.252472,241.561676 265.133057,238.192200 269.105957,240.009384 
	C270.237152,237.389236 271.783813,235.225418 272.045044,232.916214 
	C272.650360,227.565491 272.884186,222.141342 272.817596,216.752533 
	C272.680603,205.665695 272.464020,194.495880 261.067566,187.121597 
	C259.165710,183.955627 257.263855,180.789673 255.797745,178.349060 
	C248.755920,175.433899 242.201553,172.720520 234.974701,169.728775 
	C242.174957,163.638428 244.488541,154.173813 253.266693,150.500641 
	C251.471451,142.453827 250.619720,141.469315 244.843964,141.060547 
	C231.078751,140.086395 227.822388,141.503479 224.054916,149.915039 
M152.148560,237.909576 
	C152.073807,235.748672 151.937088,233.587845 151.934113,231.426834 
	C151.909698,213.777893 151.991562,196.128021 151.801590,178.481018 
	C151.777512,176.244736 150.602585,172.229507 149.562561,172.093948 
	C143.934875,171.360413 138.181549,171.502808 132.472076,171.520691 
	C129.468918,171.530090 125.954956,173.010712 123.558807,171.904800 
	C115.871010,168.356598 107.889877,168.610596 100.011513,169.363953 
	C94.363838,169.904007 88.284660,171.136276 83.497330,173.938095 
	C79.111183,176.505127 76.198608,181.589996 72.597771,185.608887 
	C71.227509,184.775894 70.196007,184.148819 70.004395,184.032333 
	C68.569031,188.211426 67.568047,192.334824 65.772766,196.077179 
	C62.883820,202.099350 61.252613,207.921204 61.957119,214.923508 
	C63.180733,227.085434 67.372070,238.206711 76.003998,246.036407 
	C90.120262,258.840759 107.032143,261.597412 125.065102,253.925247 
	C126.182014,253.450043 128.094742,253.031738 128.763779,253.605484 
	C133.944077,258.048004 140.305939,255.478073 146.013138,256.603973 
	C148.921341,257.177704 152.547913,255.685028 152.702194,251.600418 
	C152.863220,247.337296 152.469849,243.053253 152.148560,237.909576 
z"/>
<path fill="#E89B3D" opacity="1.000000" stroke="none" 
	d="
M261.241791,187.792465 
	C272.464020,194.495880 272.680603,205.665695 272.817596,216.752533 
	C272.884186,222.141342 272.650360,227.565491 272.045044,232.916214 
	C271.783813,235.225418 270.237152,237.389236 269.105957,240.009384 
	C265.133057,238.192200 264.252472,241.561676 262.233978,244.205261 
	C255.391876,253.166046 245.597748,256.995605 234.730606,257.883118 
	C225.571335,258.631104 216.210632,258.739502 208.107819,253.432159 
	C198.613678,247.213440 188.510193,241.404083 186.554733,228.461090 
	C186.034332,225.016617 184.403259,221.739960 182.501175,218.562668 
	C184.427124,230.637466 178.515686,243.020401 185.826248,255.681686 
	C176.236908,256.162231 168.000977,256.574982 159.176147,257.017212 
	C158.750198,250.649490 158.167877,245.381729 158.092804,240.106735 
	C157.936279,229.109772 157.933929,218.107361 158.090729,207.110367 
	C158.190231,200.132507 158.963760,193.158890 158.925995,186.186127 
	C158.894791,180.429092 158.446426,174.619583 157.475449,168.954575 
	C157.170120,167.173141 154.630386,165.721878 153.008438,164.233826 
	C151.403412,162.761337 149.575729,161.527649 148.002533,160.025024 
	C141.837494,154.136490 148.767517,148.817642 148.998016,143.194519 
	C149.029312,142.431061 151.644073,141.209991 153.092529,141.165054 
	C159.584366,140.963760 166.099991,140.866196 172.581787,141.208633 
	C178.007492,141.495270 182.110046,144.961090 182.161484,150.423523 
	C182.292130,164.300186 181.631546,178.183746 181.339706,192.065643 
	C181.305725,193.682541 180.966293,195.952911 181.848587,196.815552 
	C185.772980,200.652390 184.763794,204.509277 182.735580,208.636398 
	C182.412445,209.293915 182.500092,210.153336 182.397827,210.919403 
	C182.784622,211.116531 183.171402,211.313660 183.558197,211.510773 
	C184.379440,210.015289 185.385635,208.590439 185.988556,207.011566 
	C188.120941,201.427444 189.856567,195.675140 192.286423,190.229263 
	C193.291809,187.975952 195.995499,186.541351 197.368042,184.379639 
	C201.751068,177.476517 205.584885,170.208679 210.224243,163.491577 
	C212.320694,160.456207 215.898941,158.473312 218.652969,155.853210 
	C220.586609,154.013596 222.263428,151.904053 224.544434,149.970276 
	C225.033936,150.025513 225.300537,150.254715 225.180054,150.558456 
	C224.556107,151.820679 224.052628,152.779160 223.380371,153.857590 
	C223.007309,154.177658 222.878876,154.418259 222.536163,154.879333 
	C219.162231,159.365799 216.078415,163.672256 212.992004,167.984543 
	C212.989410,167.990372 212.980179,167.998825 212.682831,168.148804 
	C208.830994,173.118439 205.276505,177.938110 201.455505,182.959106 
	C195.992599,190.154373 190.165604,196.807251 188.922028,205.963898 
	C188.962830,206.010788 188.897278,205.908646 188.620239,206.195618 
	C185.744598,219.376175 187.966995,231.072571 197.042328,241.364960 
	C197.881561,242.232605 198.616486,242.828384 199.499146,243.734573 
	C202.772003,246.348160 205.897141,248.651337 209.204742,251.178955 
	C209.930252,251.579697 210.473297,251.756012 211.233780,252.186325 
	C212.301758,252.640182 213.152298,252.840042 214.135925,253.127594 
	C214.268997,253.215302 214.587494,253.227798 214.873352,253.484924 
	C234.189713,260.926544 256.979370,252.029816 266.087036,233.860626 
	C273.244629,219.581741 271.518768,201.324417 261.954407,190.733643 
	C261.731201,190.230194 261.509552,190.024796 261.168213,189.612122 
	C260.991577,188.959045 260.859833,188.593948 260.856140,188.119324 
	C260.984222,188.009811 261.241791,187.792465 261.241791,187.792465 
M157.591980,144.880905 
	C148.833466,144.951569 150.021362,144.391617 149.905548,152.782883 
	C149.896362,153.448334 149.989365,154.126129 149.894272,154.777679 
	C149.211761,159.453735 150.948990,161.737762 155.878845,160.898148 
	C160.497467,160.111542 161.351669,162.408249 161.324188,166.556915 
	C161.158875,191.515396 161.102982,216.476395 161.280045,241.434662 
	C161.385757,256.334686 158.697998,253.617661 174.435791,253.953003 
	C177.827148,254.025269 179.135910,252.721817 179.126968,249.274094 
	C179.040222,215.828629 179.032532,182.382828 179.097031,148.937317 
	C179.102875,145.907196 178.034653,144.778305 175.039536,144.850235 
	C169.551712,144.982040 164.058289,144.881454 157.591980,144.880905 
z"/>
<path fill="#E19D48" opacity="1.000000" stroke="none" 
	d="
M324.936676,212.967651 
	C324.680267,213.140396 324.449890,213.342773 323.788269,213.840744 
	C322.535065,215.045242 321.739166,215.983795 320.943268,216.922348 
	C320.943268,216.922348 320.948669,216.973007 320.577118,216.981705 
	C318.119995,219.290375 316.034393,221.590332 313.948853,223.890320 
	C311.923248,226.185364 309.688446,228.332779 307.933990,230.819138 
	C306.342926,233.073914 307.612610,234.598953 310.074738,234.918427 
	C313.763397,235.397079 317.480774,235.654404 322.058319,236.008118 
	C324.745911,236.015244 326.594025,236.240173 328.368958,235.975159 
	C331.296478,235.538086 334.176697,234.784378 337.076874,234.164124 
	C343.515839,238.059525 340.653381,244.426071 340.274628,249.427963 
	C339.681122,257.265778 338.442078,256.781677 330.487701,256.514038 
	C314.189301,255.965515 297.855865,256.126190 281.545349,256.438263 
	C275.442352,256.555084 273.308868,254.698410 274.709717,248.900681 
	C275.130554,247.159058 274.728424,245.231781 275.034821,243.446442 
	C275.571686,240.318405 275.542114,236.665283 277.215607,234.246033 
	C281.138794,228.574448 286.090088,223.627304 290.326630,218.155762 
	C295.461121,211.524536 300.260010,204.634201 305.285034,197.916504 
	C305.892700,197.104095 307.002991,196.667648 309.295837,195.071701 
	C306.120392,194.171967 303.830017,193.070053 301.486542,192.942291 
	C293.866852,192.526825 286.226440,192.499344 278.598969,192.197632 
	C278.111206,192.178345 277.665405,191.097565 277.665192,190.168884 
	C290.489929,189.827179 302.849579,189.827179 316.335266,189.827179 
	C314.647675,192.316803 313.920685,193.602600 312.994141,194.723495 
	C303.130310,206.656830 293.623413,218.919144 283.190979,230.334839 
	C277.619293,236.431686 276.210785,242.906601 277.334473,250.400528 
	C277.529663,251.702026 279.582855,253.710571 280.798157,253.725388 
	C298.618317,253.942398 316.442230,253.914474 334.264160,253.792374 
	C335.456207,253.784210 337.614380,252.620117 337.665741,251.878815 
	C337.950928,247.762573 338.452209,243.381470 337.262268,239.599945 
	C336.864502,238.335892 331.709503,238.429520 328.705963,238.167999 
	C326.226410,237.952118 323.712738,238.129211 321.214203,238.129517 
	C314.296387,238.130356 307.378540,238.129807 299.329590,238.129807 
	C300.815887,235.717133 301.496613,234.254135 302.492035,233.051651 
	C312.364044,221.126251 321.787323,208.770905 332.397797,197.538712 
	C338.151001,191.448410 338.316528,185.000549 338.104248,177.817642 
	C338.023285,175.078690 336.734711,174.078125 334.028046,174.090424 
	C316.371948,174.170547 298.715118,174.202408 281.059174,174.120316 
	C277.957825,174.105911 276.941254,175.334488 277.073364,178.278717 
	C277.244965,182.102234 277.157135,185.937363 277.180969,189.767502 
	C273.386597,186.179291 273.030182,175.110931 276.729889,171.780884 
	C277.423767,171.156326 278.711029,171.084824 279.748016,170.968735 
	C282.245697,170.689163 284.757324,170.534332 287.863037,170.525482 
	C290.003235,171.158035 291.540985,171.961273 293.084686,171.972946 
	C306.298157,172.072708 319.512878,172.057373 332.726746,171.987549 
	C334.156219,171.980011 335.582764,171.408554 337.010651,171.098679 
	C338.311523,172.811356 339.612396,174.524017 340.715851,176.957825 
	C340.336853,181.116272 340.155273,184.553589 339.973694,187.990906 
	C336.479034,193.412140 333.001648,198.844666 329.475098,204.245087 
	C328.771088,205.323196 327.879333,206.278687 326.768738,207.886841 
	C325.954437,209.977875 325.445557,211.472763 324.936676,212.967651 
z"/>
<path fill="#E4A859" opacity="1.000000" stroke="none" 
	d="
M152.233704,238.343964 
	C152.469849,243.053253 152.863220,247.337296 152.702194,251.600418 
	C152.547913,255.685028 148.921341,257.177704 146.013138,256.603973 
	C140.305939,255.478073 133.944077,258.048004 128.763779,253.605484 
	C128.094742,253.031738 126.182014,253.450043 125.065102,253.925247 
	C107.032143,261.597412 90.120262,258.840759 76.003998,246.036407 
	C67.372070,238.206711 63.180733,227.085434 61.957119,214.923508 
	C61.252613,207.921204 62.883820,202.099350 65.772766,196.077179 
	C67.568047,192.334824 68.569031,188.211426 70.004395,184.032333 
	C70.196007,184.148819 71.227509,184.775894 72.597771,185.608887 
	C76.198608,181.589996 79.111183,176.505127 83.497330,173.938095 
	C88.284660,171.136276 94.363838,169.904007 100.011513,169.363953 
	C107.889877,168.610596 115.871010,168.356598 123.558807,171.904800 
	C125.954956,173.010712 129.468918,171.530090 132.472076,171.520691 
	C138.181549,171.502808 143.934875,171.360413 149.562561,172.093948 
	C150.602585,172.229507 151.777512,176.244736 151.801590,178.481018 
	C151.991562,196.128021 151.909698,213.777893 151.934113,231.426834 
	C151.937088,233.587845 152.073807,235.748672 152.233704,238.343964 
M122.913193,252.626358 
	C125.582199,251.360672 128.251205,250.095001 131.388000,248.607483 
	C131.898743,253.629364 134.861023,254.377533 138.751663,253.892639 
	C140.719070,253.647415 142.749390,253.745758 144.738922,253.876511 
	C147.858871,254.081558 149.270737,252.912903 149.259842,249.608932 
	C149.181229,225.796692 149.234375,201.984009 149.139053,178.171890 
	C149.133804,176.857117 148.558609,175.015610 147.598129,174.327988 
	C144.015930,171.763489 133.279266,174.239334 130.979111,177.943481 
	C127.341553,176.385132 123.790802,174.518585 120.028427,173.311829 
	C103.594841,168.040939 88.851883,171.553925 76.878876,183.684769 
	C64.445396,196.282135 61.138214,211.699799 67.314308,228.366653 
	C74.884018,248.794281 98.546501,262.125092 122.913193,252.626358 
z"/>
<path fill="#E89B3D" opacity="1.000000" stroke="none" 
	d="
M224.899994,149.911682 
	C227.822388,141.503479 231.078751,140.086395 244.843964,141.060547 
	C250.619720,141.469315 251.471451,142.453827 253.266693,150.500641 
	C244.488541,154.173813 242.174957,163.638428 234.974701,169.728775 
	C242.201553,172.720520 248.755920,175.433899 255.797745,178.349060 
	C257.263855,180.789673 259.165710,183.955627 261.154663,187.457031 
	C261.241791,187.792465 260.984222,188.009811 260.602966,187.965332 
	C259.468567,187.321808 258.715393,186.722763 257.808044,185.842651 
	C256.785522,184.976791 255.917145,184.391983 254.885880,183.520294 
	C248.979340,178.475433 242.556503,175.389847 234.596222,175.116669 
	C233.498932,174.998184 232.760880,174.968414 231.839905,174.779205 
	C230.769150,174.113495 229.881348,173.607193 229.056473,173.089493 
	C229.119415,173.078094 229.106583,172.950790 229.413849,172.837723 
	C236.593994,163.791183 243.466873,154.857712 250.983246,145.087830 
	C248.803894,145.087830 247.882004,145.087830 246.597839,145.024231 
	C245.505020,145.016403 244.774506,145.072159 243.629196,145.014954 
	C241.792755,144.978043 240.371109,145.054092 238.634689,145.074158 
	C237.896851,145.055038 237.473801,145.091919 236.625458,145.019775 
	C231.046188,143.590225 227.989304,146.547073 225.300537,150.254715 
	C225.300537,150.254715 225.033936,150.025513 224.899994,149.911682 
z"/>
<path fill="#F29525" opacity="1.000000" stroke="none" 
	d="
M336.946777,170.751221 
	C335.582764,171.408554 334.156219,171.980011 332.726746,171.987549 
	C319.512878,172.057373 306.298157,172.072708 293.084686,171.972946 
	C291.540985,171.961273 290.003235,171.158035 288.205322,170.438110 
	C288.256317,169.321686 288.564758,168.488907 289.405151,167.330399 
	C305.289825,167.008301 320.642548,167.011932 335.995239,167.015549 
	C336.291138,168.144958 336.587006,169.274353 336.946777,170.751221 
z"/>
<path fill="#FE9119" opacity="1.000000" stroke="none" 
	d="
M336.088928,166.731842 
	C320.642548,167.011932 305.289825,167.008301 289.468384,167.006119 
	C290.383331,166.341995 291.760773,165.113663 293.151672,165.098282 
	C306.427338,164.951324 319.705536,164.976669 332.982117,165.071396 
	C334.052155,165.079041 335.115906,165.968460 336.088928,166.731842 
z"/>
<path fill="#F29528" opacity="1.000000" stroke="none" 
	d="
M336.843445,233.849670 
	C334.176697,234.784378 331.296478,235.538086 328.368958,235.975159 
	C326.594025,236.240173 324.745911,236.015244 322.465271,235.997803 
	C325.301727,232.078598 331.812286,230.986847 336.843445,233.849670 
z"/>
<path fill="#F19429" opacity="1.000000" stroke="none" 
	d="
M340.366455,187.976379 
	C340.155273,184.553589 340.336853,181.116272 340.721497,177.327942 
	C341.934662,179.328583 343.418884,181.616760 343.746185,184.059906 
	C343.899780,185.206604 341.824463,186.651886 340.366455,187.976379 
z"/>
<path fill="#F19429" opacity="1.000000" stroke="none" 
	d="
M314.186523,224.037018 
	C316.034393,221.590332 318.119995,219.290375 320.560150,216.962433 
	C318.751251,219.350891 316.587769,221.767319 314.186523,224.037018 
z"/>
<path fill="#F19429" opacity="1.000000" stroke="none" 
	d="
M325.242249,212.865585 
	C325.445557,211.472763 325.954437,209.977875 326.684875,208.224930 
	C326.453552,209.565750 326.000671,211.164642 325.242249,212.865585 
z"/>
<path fill="#F19429" opacity="1.000000" stroke="none" 
	d="
M321.271057,216.864044 
	C321.739166,215.983795 322.535065,215.045242 323.648254,214.023819 
	C323.176636,214.895874 322.387756,215.850800 321.271057,216.864044 
z"/>
<path fill="#FCFEFB" opacity="1.000000" stroke="none" 
	d="
M199.351395,243.424164 
	C198.616486,242.828384 197.881561,242.232605 197.070282,240.966904 
	C196.321014,238.498459 195.701126,236.677841 194.963104,234.906433 
	C193.767685,232.037170 191.893631,229.304688 191.376282,226.328430 
	C190.203568,219.582047 189.683014,212.722290 188.897278,205.908646 
	C188.897278,205.908646 188.962830,206.010788 189.253601,205.863159 
	C191.829620,201.939438 194.293991,198.257492 196.343491,194.357529 
	C197.990753,191.222977 199.054367,187.838089 203.732635,188.489120 
	C204.333466,188.572754 205.166153,186.990204 205.919983,185.772217 
	C205.945755,184.556900 205.942993,183.748856 205.961365,182.959473 
	C205.982513,182.978104 205.947281,182.948517 206.192261,182.893066 
	C206.603271,182.214752 206.769287,181.591873 206.959198,180.622238 
	C207.975052,178.832092 208.966995,177.388702 210.220505,176.138290 
	C212.875198,177.102859 214.519577,177.132889 212.943253,173.640701 
	C213.277573,172.895554 213.548340,172.420013 214.216705,171.955521 
	C215.409637,171.979187 216.205002,171.991791 217.175919,172.289520 
	C218.673767,174.046204 219.996063,175.517761 221.318344,176.989304 
	C222.109009,176.187073 222.899658,175.384827 223.690323,174.582596 
	C222.127090,173.721527 220.563843,172.860458 219.001129,171.600159 
	C219.182419,169.661087 219.363159,168.121246 219.521790,166.769669 
	C222.433533,167.589935 224.748199,168.242004 227.331024,169.101959 
	C228.101654,170.523499 228.604126,171.737152 229.106583,172.950790 
	C229.106583,172.950790 229.119415,173.078094 228.731018,173.088470 
	C227.728745,173.708099 227.114838,174.317337 226.500946,174.926575 
	C227.338547,175.591766 228.176132,176.256943 229.092972,177.297089 
	C231.751236,181.897903 237.405899,182.443298 242.372437,178.999390 
	C244.838425,180.342697 246.968994,181.599457 249.102722,183.190201 
	C250.083969,183.991455 251.062042,184.458740 252.366699,184.938629 
	C253.128250,184.977402 253.563217,185.003555 254.000671,185.427353 
	C254.678970,191.516739 257.044037,194.250900 261.147247,194.319183 
	C263.190277,198.751678 265.145721,202.847733 266.885773,207.244812 
	C267.131134,209.364471 267.591858,211.183075 268.058716,213.418594 
	C268.056183,215.225266 268.047485,216.615051 267.695923,218.043121 
	C266.929047,219.402725 266.505096,220.724014 266.082520,222.473755 
	C264.755280,226.985748 263.426636,231.069275 261.866577,234.848694 
	C259.602173,234.448471 257.569183,234.352356 255.536163,234.256256 
	C256.380188,235.845490 257.224243,237.434753 257.926025,239.270325 
	C257.239319,240.035248 256.694916,240.553864 255.795410,241.129227 
	C253.639465,243.127655 248.934341,242.463593 249.971649,247.418396 
	C240.547653,251.470322 231.360550,255.514999 220.949799,253.912796 
	C218.843765,253.588669 216.709015,253.451294 214.587494,253.227798 
	C214.587494,253.227798 214.268997,253.215302 214.045456,252.850555 
	C212.886734,252.301300 211.951538,252.116806 211.016357,251.932312 
	C210.473297,251.756012 209.930252,251.579697 209.133621,250.848480 
	C205.703827,248.003769 202.527603,245.713959 199.351395,243.424164 
M214.180801,235.617142 
	C217.547379,241.351471 225.210968,243.528183 230.672195,239.983917 
	C231.115662,239.981323 231.559128,239.978745 232.594330,240.382904 
	C236.732727,239.917496 240.871124,239.452087 245.212509,239.482300 
	C245.733551,239.802887 246.254593,240.123459 246.775635,240.444046 
	C246.899277,240.184586 247.022919,239.925140 247.146561,239.665680 
	C246.426086,239.448181 245.705627,239.230667 245.005890,238.291412 
	C246.649170,235.849030 248.292450,233.406647 250.621170,230.969864 
	C252.834473,230.977554 254.052597,230.270325 252.872025,227.008224 
	C253.369537,223.746124 254.401627,220.458099 254.244995,217.227722 
	C253.979675,211.756088 255.729050,205.359558 248.610886,201.503067 
	C246.717072,199.383270 244.823257,197.263489 242.828186,194.430145 
	C241.395966,193.209656 240.136856,191.331268 238.497009,190.899780 
	C234.565491,189.865265 230.409164,189.716721 226.428299,188.830154 
	C221.320694,187.692627 218.340576,190.100952 215.881042,194.630127 
	C215.640564,194.845032 215.361404,194.979904 214.432526,194.759415 
	C213.502014,194.823502 212.231506,194.515396 211.692383,195.007919 
	C204.439163,201.634216 200.920822,218.579666 205.719574,227.166061 
	C207.452789,230.267288 208.415024,235.530228 214.005493,234.992447 
	C214.005493,234.992447 214.072830,234.903061 214.180801,235.617142 
M233.523575,252.496750 
	C233.523575,252.496750 233.492188,252.505005 233.523575,252.496750 
z"/>
<path fill="#FDFBF1" opacity="1.000000" stroke="none" 
	d="
M158.079590,144.879333 
	C164.058289,144.881454 169.551712,144.982040 175.039536,144.850235 
	C178.034653,144.778305 179.102875,145.907196 179.097031,148.937317 
	C179.032532,182.382828 179.040222,215.828629 179.126968,249.274094 
	C179.135910,252.721817 177.827148,254.025269 174.435791,253.953003 
	C158.697998,253.617661 161.385757,256.334686 161.280045,241.434662 
	C161.102982,216.476395 161.158875,191.515396 161.324188,166.556915 
	C161.351669,162.408249 160.497467,160.111542 155.878845,160.898148 
	C150.948990,161.737762 149.211761,159.453735 149.894272,154.777679 
	C149.989365,154.126129 149.896362,153.448334 149.905548,152.782883 
	C150.021362,144.391617 148.833466,144.951569 158.079590,144.879333 
z"/>
<path fill="#FBFDF9" opacity="1.000000" stroke="none" 
	d="
M217.000351,172.004395 
	C216.205002,171.991791 215.409637,171.979187 214.180115,171.623505 
	C213.490692,170.186539 213.235443,169.092682 212.980194,167.998825 
	C212.980179,167.998825 212.989410,167.990372 213.334564,167.925110 
	C218.335419,164.589752 222.712601,161.126099 222.826279,154.699326 
	C222.878876,154.418259 223.007309,154.177658 223.744781,153.845612 
	C228.105545,151.526031 231.958740,149.380951 235.734940,147.107941 
	C236.348373,146.738678 236.620728,145.802811 237.050751,145.128815 
	C237.473801,145.091919 237.896851,145.055038 238.715210,145.367218 
	C239.852921,146.791245 240.595337,147.866180 241.724564,149.501144 
	C242.752243,147.563492 243.398117,146.345718 244.043991,145.127930 
	C244.774506,145.072159 245.505020,145.016403 246.524414,145.356354 
	C240.786148,153.940842 236.283096,163.430389 227.062866,168.894073 
	C224.748199,168.242004 222.433533,167.589935 219.521790,166.769669 
	C219.363159,168.121246 219.182419,169.661087 218.667755,171.600677 
	C217.889343,172.001740 217.444839,172.003067 217.000351,172.004395 
z"/>
<path fill="#FDF1D2" opacity="1.000000" stroke="none" 
	d="
M214.873352,253.484924 
	C216.709015,253.451294 218.843765,253.588669 220.949799,253.912796 
	C231.360550,255.514999 240.547653,251.470322 250.286545,247.284698 
	C252.560287,244.911636 254.355392,242.992050 256.150482,241.072479 
	C256.694916,240.553864 257.239319,240.035248 258.118195,239.225739 
	C259.667755,237.674164 260.882874,236.413483 262.097992,235.152802 
	C263.426636,231.069275 264.755280,226.985748 266.300232,222.232635 
	C267.023956,220.376984 267.531403,219.190903 268.038818,218.004822 
	C268.047485,216.615051 268.056183,215.225266 268.063751,213.020721 
	C267.742157,210.451889 267.421631,208.697845 267.101135,206.943787 
	C265.145721,202.847733 263.190277,198.751678 261.205200,194.005737 
	C261.460663,192.554245 261.745728,191.752625 262.030792,190.950989 
	C271.518768,201.324417 273.244629,219.581741 266.087036,233.860626 
	C256.979370,252.029816 234.189713,260.926544 214.873352,253.484924 
z"/>
<path fill="#FDF1D2" opacity="1.000000" stroke="none" 
	d="
M188.620239,206.195618 
	C189.683014,212.722290 190.203568,219.582047 191.376282,226.328430 
	C191.893631,229.304688 193.767685,232.037170 194.963104,234.906433 
	C195.701126,236.677841 196.321014,238.498459 196.965973,240.695038 
	C187.966995,231.072571 185.744598,219.376175 188.620239,206.195618 
z"/>
<path fill="#FDF1D2" opacity="1.000000" stroke="none" 
	d="
M205.891434,186.179489 
	C205.166153,186.990204 204.333466,188.572754 203.732635,188.489120 
	C199.054367,187.838089 197.990753,191.222977 196.343491,194.357529 
	C194.293991,198.257492 191.829620,201.939438 189.212814,205.816269 
	C190.165604,196.807251 195.992599,190.154373 201.582703,183.072174 
	C201.976425,182.983932 202.229507,183.211349 202.266739,183.529160 
	C203.499802,184.624466 204.695618,185.401978 205.891434,186.179489 
z"/>
<path fill="#FDF1D2" opacity="1.000000" stroke="none" 
	d="
M212.682831,168.148804 
	C213.235443,169.092682 213.490692,170.186539 213.782532,171.612427 
	C213.548340,172.420013 213.277573,172.895554 212.624908,173.685211 
	C211.481644,174.647980 210.720291,175.296646 209.958954,175.945312 
	C208.966995,177.388702 207.975052,178.832092 206.775879,180.835876 
	C206.361526,181.913696 206.154404,182.431107 205.947266,182.948517 
	C205.947281,182.948517 205.982513,182.978104 205.587814,182.961411 
	C204.205246,183.033600 203.217377,183.122467 202.229507,183.211349 
	C202.229507,183.211349 201.976425,182.983932 201.849213,182.870850 
	C205.276505,177.938110 208.830994,173.118439 212.682831,168.148804 
z"/>
<path fill="#FBFDF5" opacity="1.000000" stroke="none" 
	d="
M261.954407,190.733643 
	C261.745728,191.752625 261.460663,192.554245 261.117615,193.669312 
	C257.044037,194.250900 254.678970,191.516739 254.201645,185.245728 
	C254.616364,184.380051 254.832565,184.093628 255.048767,183.807190 
	C255.917145,184.391983 256.785522,184.976791 257.831970,186.193069 
	C259.077728,187.849731 260.145447,188.874924 261.213135,189.900101 
	C261.509552,190.024796 261.731201,190.230194 261.954407,190.733643 
z"/>
<path fill="#FDF1D2" opacity="1.000000" stroke="none" 
	d="
M236.625473,145.019775 
	C236.620728,145.802811 236.348373,146.738678 235.734940,147.107941 
	C231.958740,149.380951 228.105545,151.526031 223.913574,153.725662 
	C224.052628,152.779160 224.556107,151.820679 225.180054,150.558456 
	C227.989304,146.547073 231.046188,143.590225 236.625473,145.019775 
z"/>
<path fill="#FDF1D2" opacity="1.000000" stroke="none" 
	d="
M222.536163,154.879333 
	C222.712601,161.126099 218.335419,164.589752 213.337173,167.919281 
	C216.078415,163.672256 219.162231,159.365799 222.536163,154.879333 
z"/>
<path fill="#FDF1D2" opacity="1.000000" stroke="none" 
	d="
M199.499146,243.734573 
	C202.527603,245.713959 205.703827,248.003769 208.951157,250.624039 
	C205.897141,248.651337 202.772003,246.348160 199.499146,243.734573 
z"/>
<path fill="#FDF1D2" opacity="1.000000" stroke="none" 
	d="
M261.168213,189.612122 
	C260.145447,188.874924 259.077728,187.849731 257.986145,186.474136 
	C258.715393,186.722763 259.468567,187.321808 260.474915,188.074844 
	C260.859833,188.593948 260.991577,188.959045 261.168213,189.612122 
z"/>
<path fill="#FDF1D2" opacity="1.000000" stroke="none" 
	d="
M211.233780,252.186310 
	C211.951538,252.116806 212.886734,252.301300 213.912384,252.762848 
	C213.152298,252.840042 212.301758,252.640182 211.233780,252.186310 
z"/>
<path fill="#FDFBF1" opacity="1.000000" stroke="none" 
	d="
M277.136627,189.824951 
	C277.157135,185.937363 277.244965,182.102234 277.073364,178.278717 
	C276.941254,175.334488 277.957825,174.105911 281.059174,174.120316 
	C298.715118,174.202408 316.371948,174.170547 334.028046,174.090424 
	C336.734711,174.078125 338.023285,175.078690 338.104248,177.817642 
	C338.316528,185.000549 338.151001,191.448410 332.397797,197.538712 
	C321.787323,208.770905 312.364044,221.126251 302.492035,233.051651 
	C301.496613,234.254135 300.815887,235.717133 299.329590,238.129807 
	C307.378540,238.129807 314.296387,238.130356 321.214203,238.129517 
	C323.712738,238.129211 326.226410,237.952118 328.705963,238.167999 
	C331.709503,238.429520 336.864502,238.335892 337.262268,239.599945 
	C338.452209,243.381470 337.950928,247.762573 337.665741,251.878815 
	C337.614380,252.620117 335.456207,253.784210 334.264160,253.792374 
	C316.442230,253.914474 298.618317,253.942398 280.798157,253.725388 
	C279.582855,253.710571 277.529663,251.702026 277.334473,250.400528 
	C276.210785,242.906601 277.619293,236.431686 283.190979,230.334839 
	C293.623413,218.919144 303.130310,206.656830 312.994141,194.723495 
	C313.920685,193.602600 314.647675,192.316803 316.335266,189.827179 
	C302.849579,189.827179 290.489929,189.827179 277.678955,189.828690 
	C277.227631,189.830200 277.092285,189.882416 277.136627,189.824951 
z"/>
<path fill="#FDFBF2" opacity="1.000000" stroke="none" 
	d="
M122.540848,252.751236 
	C98.546501,262.125092 74.884018,248.794281 67.314308,228.366653 
	C61.138214,211.699799 64.445396,196.282135 76.878876,183.684769 
	C88.851883,171.553925 103.594841,168.040939 120.028427,173.311829 
	C123.790802,174.518585 127.341553,176.385132 130.979111,177.943481 
	C133.279266,174.239334 144.015930,171.763489 147.598129,174.327988 
	C148.558609,175.015610 149.133804,176.857117 149.139053,178.171890 
	C149.234375,201.984009 149.181229,225.796692 149.259842,249.608932 
	C149.270737,252.912903 147.858871,254.081558 144.738922,253.876511 
	C142.749390,253.745758 140.719070,253.647415 138.751663,253.892639 
	C134.861023,254.377533 131.898743,253.629364 131.388000,248.607483 
	C128.251205,250.095001 125.582199,251.360672 122.540848,252.751236 
M128.827469,201.885025 
	C128.274933,201.052933 127.732468,200.213943 127.168320,199.389786 
	C121.070099,190.481003 109.459076,186.434387 99.417892,189.714432 
	C88.941818,193.136520 81.685394,203.238510 82.013580,213.943771 
	C82.360893,225.272995 89.986015,235.093002 100.791039,237.544724 
	C110.279495,239.697693 118.782112,237.395676 125.248856,229.988632 
	C132.365173,221.837570 133.689987,212.537582 128.827469,201.885025 
z"/>
<path fill="#FDF1D2" opacity="1.000000" stroke="none" 
	d="
M227.331024,169.101959 
	C236.283096,163.430389 240.786148,153.940842 246.886719,145.419937 
	C247.882004,145.087830 248.803894,145.087830 250.983246,145.087830 
	C243.466873,154.857712 236.593994,163.791183 229.413849,172.837723 
	C228.604126,171.737152 228.101654,170.523499 227.331024,169.101959 
z"/>
<path fill="#FDF1D2" opacity="1.000000" stroke="none" 
	d="
M254.885895,183.520294 
	C254.832565,184.093628 254.616364,184.380051 254.199173,184.848083 
	C253.563217,185.003555 253.128250,184.977402 252.153458,184.727509 
	C250.775620,183.954590 249.937576,183.405411 249.099548,182.856232 
	C246.968994,181.599457 244.838425,180.342697 242.108627,178.767975 
	C239.324738,177.368469 237.140106,176.286926 234.955475,175.205383 
	C242.556503,175.389847 248.979340,178.475433 254.885895,183.520294 
z"/>
<path fill="#FCFEF6" opacity="1.000000" stroke="none" 
	d="
M234.596222,175.116669 
	C237.140106,176.286926 239.324738,177.368469 241.773193,178.681427 
	C237.405899,182.443298 231.751236,181.897903 229.422729,177.270523 
	C230.456436,176.225540 231.239639,175.582077 232.022842,174.938629 
	C232.760880,174.968414 233.498932,174.998184 234.596222,175.116669 
z"/>
<path fill="#FDF1D2" opacity="1.000000" stroke="none" 
	d="
M231.839905,174.779205 
	C231.239639,175.582077 230.456436,176.225540 229.343475,176.895569 
	C228.176132,176.256943 227.338547,175.591766 226.500946,174.926575 
	C227.114838,174.317337 227.728745,173.708099 228.668091,173.099884 
	C229.881348,173.607193 230.769150,174.113495 231.839905,174.779205 
z"/>
<path fill="#FDF1D2" opacity="1.000000" stroke="none" 
	d="
M243.629196,145.014954 
	C243.398117,146.345718 242.752243,147.563492 241.724564,149.501144 
	C240.595337,147.866180 239.852921,146.791245 239.029968,145.423233 
	C240.371109,145.054092 241.792755,144.978043 243.629196,145.014954 
z"/>
<path fill="#E39B42" opacity="1.000000" stroke="none" 
	d="
M215.043594,195.034729 
	C215.361404,194.979904 215.640564,194.845032 216.381897,194.364136 
	C225.768372,189.380081 234.423477,190.404144 242.929428,195.143692 
	C244.823257,197.263489 246.717072,199.383270 248.880096,202.113617 
	C255.103241,216.591888 252.576965,228.226105 241.517532,235.919571 
	C238.746307,237.847382 235.195251,238.654175 232.002594,239.976166 
	C231.559128,239.978745 231.115662,239.981323 229.945221,239.935440 
	C224.169785,238.225662 219.121307,236.564362 214.072830,234.903061 
	C214.072830,234.903061 214.005493,234.992447 213.895630,234.654633 
	C202.432312,222.325180 202.881287,208.304001 215.043594,195.034729 
M223.863617,193.936310 
	C222.743393,195.263153 221.623184,196.589981 220.731796,197.645798 
	C218.785599,198.045349 215.815460,197.748291 214.878815,198.987823 
	C205.609222,211.254990 205.630432,221.329056 215.742523,232.847824 
	C217.582169,234.943359 221.145813,236.337036 224.031204,236.564804 
	C237.741898,237.647003 244.892120,232.498016 249.546066,219.695419 
	C251.358490,214.709534 247.400635,200.762756 242.791855,198.379166 
	C240.322708,197.102158 237.682709,195.992798 234.990311,195.351181 
	C231.601028,194.543518 228.079376,194.291306 223.863617,193.936310 
z"/>
<path fill="#FDEFCD" opacity="1.000000" stroke="none" 
	d="
M232.298462,240.179535 
	C235.195251,238.654175 238.746307,237.847382 241.517532,235.919571 
	C252.576965,228.226105 255.103241,216.591888 249.108063,202.352753 
	C255.729050,205.359558 253.979675,211.756088 254.244995,217.227722 
	C254.401627,220.458099 253.369537,223.746124 252.587769,227.552429 
	C251.514236,229.052505 250.724976,230.008392 249.935730,230.964264 
	C248.292450,233.406647 246.649170,235.849030 245.002380,238.646042 
	C244.998886,239.000671 245.009521,238.986679 245.009521,238.986679 
	C240.871124,239.452087 236.732727,239.917496 232.298462,240.179535 
z"/>
<path fill="#FDEFCD" opacity="1.000000" stroke="none" 
	d="
M214.738068,194.897064 
	C202.881287,208.304001 202.432312,222.325180 213.936768,234.616730 
	C208.415024,235.530228 207.452789,230.267288 205.719574,227.166061 
	C200.920822,218.579666 204.439163,201.634216 211.692383,195.007919 
	C212.231506,194.515396 213.502014,194.823502 214.738068,194.897064 
z"/>
<path fill="#FDEFCD" opacity="1.000000" stroke="none" 
	d="
M242.878815,194.786926 
	C234.423477,190.404144 225.768372,189.380081 216.513641,194.169662 
	C218.340576,190.100952 221.320694,187.692627 226.428299,188.830154 
	C230.409164,189.716721 234.565491,189.865265 238.497009,190.899780 
	C240.136856,191.331268 241.395966,193.209656 242.878815,194.786926 
z"/>
<path fill="#FDEFCD" opacity="1.000000" stroke="none" 
	d="
M214.126816,235.260101 
	C219.121307,236.564362 224.169785,238.225662 229.618317,240.001251 
	C225.210968,243.528183 217.547379,241.351471 214.126816,235.260101 
z"/>
<path fill="#FBFDF5" opacity="1.000000" stroke="none" 
	d="
M261.866577,234.848694 
	C260.882874,236.413483 259.667755,237.674164 258.260437,238.979431 
	C257.224243,237.434753 256.380188,235.845490 255.536163,234.256256 
	C257.569183,234.352356 259.602173,234.448471 261.866577,234.848694 
z"/>
<path fill="#FCFEF6" opacity="1.000000" stroke="none" 
	d="
M255.795410,241.129227 
	C254.355392,242.992050 252.560287,244.911636 250.450302,246.964920 
	C248.934341,242.463593 253.639465,243.127655 255.795410,241.129227 
z"/>
<path fill="#FBFDF8" opacity="1.000000" stroke="none" 
	d="
M217.175919,172.289520 
	C217.444839,172.003067 217.889343,172.001740 218.667206,171.999908 
	C220.563843,172.860458 222.127090,173.721527 223.690323,174.582596 
	C222.899658,175.384827 222.109009,176.187073 221.318344,176.989304 
	C219.996063,175.517761 218.673767,174.046204 217.175919,172.289520 
z"/>
<path fill="#FCFEF6" opacity="1.000000" stroke="none" 
	d="
M266.885742,207.244812 
	C267.421631,208.697845 267.742157,210.451889 268.057617,212.603821 
	C267.591858,211.183075 267.131134,209.364471 266.885742,207.244812 
z"/>
<path fill="#FBFDF5" opacity="1.000000" stroke="none" 
	d="
M210.220490,176.138275 
	C210.720291,175.296646 211.481644,174.647980 212.561340,173.954819 
	C214.519577,177.132889 212.875198,177.102859 210.220490,176.138275 
z"/>
<path fill="#FBFDF5" opacity="1.000000" stroke="none" 
	d="
M202.266739,183.529160 
	C203.217377,183.122467 204.205246,183.033600 205.566681,182.942780 
	C205.942993,183.748856 205.945755,184.556900 205.919983,185.772217 
	C204.695618,185.401978 203.499802,184.624466 202.266739,183.529160 
z"/>
<path fill="#FCFEF6" opacity="1.000000" stroke="none" 
	d="
M267.695923,218.043137 
	C267.531403,219.190903 267.023956,220.376984 266.298828,221.804199 
	C266.505096,220.724014 266.929047,219.402725 267.695923,218.043137 
z"/>
<path fill="#FBFDF5" opacity="1.000000" stroke="none" 
	d="
M250.278442,230.967072 
	C250.724976,230.008392 251.514236,229.052505 252.586975,227.967712 
	C254.052597,230.270325 252.834473,230.977554 250.278442,230.967072 
z"/>
<path fill="#FBFDF5" opacity="1.000000" stroke="none" 
	d="
M249.102722,183.190201 
	C249.937576,183.405411 250.775620,183.954590 251.826889,184.714890 
	C251.062042,184.458740 250.083969,183.991455 249.102722,183.190201 
z"/>
<path fill="#FDEFCD" opacity="1.000000" stroke="none" 
	d="
M244.992035,239.006912 
	C245.705627,239.230667 246.426086,239.448181 247.146561,239.665680 
	C247.022919,239.925140 246.899277,240.184586 246.775635,240.444046 
	C246.254593,240.123459 245.733551,239.802887 245.111023,239.234497 
	C245.009521,238.986679 244.998886,239.000671 244.992035,239.006912 
z"/>
<path fill="#FBFDF5" opacity="1.000000" stroke="none" 
	d="
M206.192261,182.893066 
	C206.154404,182.431107 206.361526,181.913696 206.751984,181.182648 
	C206.769287,181.591873 206.603271,182.214752 206.192261,182.893066 
z"/>
<path fill="#FDF1D2" opacity="1.000000" stroke="none" 
	d="
M233.507874,252.500885 
	C233.492188,252.505005 233.523575,252.496750 233.507874,252.500885 
z"/>
<path fill="#F29528" opacity="1.000000" stroke="none" 
	d="
M128.997574,202.223679 
	C133.689987,212.537582 132.365173,221.837570 125.248856,229.988632 
	C118.782112,237.395676 110.279495,239.697693 100.791039,237.544724 
	C89.986015,235.093002 82.360893,225.272995 82.013580,213.943771 
	C81.685394,203.238510 88.941818,193.136520 99.417892,189.714432 
	C109.459076,186.434387 121.070099,190.481003 127.168320,199.389786 
	C127.732468,200.213943 128.274933,201.052933 128.997574,202.223679 
z"/>
<path fill="#F69321" opacity="1.000000" stroke="none" 
	d="
M224.239227,193.867859 
	C228.079376,194.291306 231.601028,194.543518 234.990311,195.351181 
	C237.682709,195.992798 240.322708,197.102158 242.791855,198.379166 
	C247.400635,200.762756 251.358490,214.709534 249.546066,219.695419 
	C244.892120,232.498016 237.741898,237.647003 224.031204,236.564804 
	C221.145813,236.337036 217.582169,234.943359 215.742523,232.847824 
	C205.630432,221.329056 205.609222,211.254990 214.878815,198.987823 
	C215.815460,197.748291 218.785599,198.045349 220.731796,197.645798 
	C221.623184,196.589981 222.743393,195.263153 224.239227,193.867859 
z"/>
</svg>