<svg version="1.1" id="Layer_1" xmlns="http://www.w3.org/2000/svg" xmlns:xlink="http://www.w3.org/1999/xlink" x="0px" y="0px"
	 width="100%" viewBox="0 0 168 168" enable-background="new 0 0 168 168" xml:space="preserve">
<path fill="#050808" opacity="1.000000" stroke="none" 
	d="
M85.000000,169.000000 
	C56.666672,169.000000 28.833340,169.000000 1.000008,169.000000 
	C1.000005,113.000008 1.000005,57.000019 1.000003,1.000023 
	C56.999985,1.000015 112.999969,1.000015 168.999969,1.000008 
	C168.999969,56.999973 168.999969,112.999947 168.999985,168.999969 
	C141.166672,169.000000 113.333336,169.000000 85.000000,169.000000 
M44.783478,95.480354 
	C51.753513,111.018242 68.672585,117.285995 83.293243,109.746498 
	C97.215775,102.566994 102.487022,84.856529 94.745735,71.268150 
	C87.683617,58.871918 72.370178,53.749851 59.410690,59.449219 
	C45.820560,65.425934 39.787373,79.628151 44.783478,95.480354 
M112.919426,64.560730 
	C112.919426,79.986679 112.919426,95.412628 112.919426,110.733398 
	C118.021782,110.733398 122.569473,110.733398 126.899155,110.733398 
	C126.899155,93.272186 126.899155,76.185471 126.899155,59.016273 
	C122.191956,59.016273 117.771584,59.016273 112.919426,59.016273 
	C112.919426,60.650745 112.919426,62.111828 112.919426,64.560730 
z"/>
<path fill="#FDFDFD" opacity="1.000000" stroke="none" 
	d="
M44.592041,95.131775 
	C39.787373,79.628151 45.820560,65.425934 59.410690,59.449219 
	C72.370178,53.749851 87.683617,58.871918 94.745735,71.268150 
	C102.487022,84.856529 97.215775,102.566994 83.293243,109.746498 
	C68.672585,117.285995 51.753513,111.018242 44.592041,95.131775 
z"/>
<path fill="#FFFFFF" opacity="1.000000" stroke="none" 
	d="
M112.919426,64.066818 
	C112.919426,62.111828 112.919426,60.650745 112.919426,59.016273 
	C117.771584,59.016273 122.191956,59.016273 126.899155,59.016273 
	C126.899155,76.185471 126.899155,93.272186 126.899155,110.733398 
	C122.569473,110.733398 118.021782,110.733398 112.919426,110.733398 
	C112.919426,95.412628 112.919426,79.986679 112.919426,64.066818 
z"/>
</svg>