<svg version="1.1" id="Layer_1" xmlns="http://www.w3.org/2000/svg" xmlns:xlink="http://www.w3.org/1999/xlink" x="0px" y="0px"
	 width="100%" viewBox="0 0 270 148" enable-background="new 0 0 270 148" xml:space="preserve">
<path fill="#855DCD" opacity="1.000000" stroke="none" 
	d="
M183.000000,149.000000 
	C122.036201,149.000000 61.572403,149.000000 1.054302,149.000000 
	C1.054302,99.732437 1.054302,50.464802 1.054302,1.098582 
	C90.880325,1.098582 180.760803,1.098582 270.820618,1.098582 
	C270.820618,50.332802 270.820618,99.666344 270.820618,149.000000 
	C241.798386,149.000000 212.649185,149.000000 183.000000,149.000000 
M114.112198,92.281898 
	C113.972023,92.920471 114.029808,93.721001 113.660660,94.172249 
	C110.423355,98.129433 112.502533,98.982399 116.340019,98.935280 
	C119.500496,98.896461 122.663208,98.978294 125.822197,98.898445 
	C128.498093,98.830818 129.825790,97.223740 128.139297,95.068939 
	C123.989380,89.766693 125.250237,83.719360 125.343521,77.904922 
	C125.453011,71.079964 130.349792,66.580040 136.805130,66.690140 
	C143.018112,66.796104 147.676605,71.274933 147.668549,77.939362 
	C147.661270,83.945358 149.265152,90.277298 145.162338,95.799461 
	C144.745712,96.360214 145.264999,97.616310 145.417236,99.288788 
	C150.877991,98.743744 155.992584,98.233246 161.287155,97.704796 
	C156.264587,84.431923 156.721680,71.751595 161.132935,59.091499 
	C153.245636,58.161438 153.245636,58.161438 151.778549,52.391129 
	C141.575333,52.391129 131.353287,52.391129 120.576950,52.391129 
	C122.679581,60.537937 115.874855,58.010216 111.787384,59.352188 
	C113.058113,61.920788 114.061699,63.949394 114.981308,66.246429 
	C114.929001,66.528526 114.980034,66.795677 115.351234,67.957947 
	C115.284714,75.279366 115.218193,82.600784 114.744888,90.459412 
	C114.495056,90.832703 114.245224,91.205986 114.112198,92.281898 
z"/>
<path fill="#FBFAFD" opacity="1.000000" stroke="none" 
	d="
M115.065292,65.978004 
	C114.061699,63.949394 113.058113,61.920788 111.787384,59.352188 
	C115.874855,58.010216 122.679581,60.537937 120.576950,52.391129 
	C131.353287,52.391129 141.575333,52.391129 151.778549,52.391129 
	C153.245636,58.161438 153.245636,58.161438 161.132935,59.091499 
	C156.721680,71.751595 156.264587,84.431923 161.287155,97.704796 
	C155.992584,98.233246 150.877991,98.743744 145.417236,99.288788 
	C145.264999,97.616310 144.745712,96.360214 145.162338,95.799461 
	C149.265152,90.277298 147.661270,83.945358 147.668549,77.939362 
	C147.676605,71.274933 143.018112,66.796104 136.805130,66.690140 
	C130.349792,66.580040 125.453011,71.079964 125.343521,77.904922 
	C125.250237,83.719360 123.989380,89.766693 128.139297,95.068939 
	C129.825790,97.223740 128.498093,98.830818 125.822197,98.898445 
	C122.663208,98.978294 119.500496,98.896461 116.340019,98.935280 
	C112.502533,98.982399 110.423355,98.129433 113.660660,94.172249 
	C114.029808,93.721001 113.972023,92.920471 114.377350,91.758972 
	C114.812233,90.798096 114.981949,90.360146 115.151672,89.922203 
	C115.218193,82.600784 115.284714,75.279366 115.288635,67.231369 
	C115.172462,66.329201 115.118874,66.153603 115.065292,65.978004 
z"/>
<path fill="#7A4BC9" opacity="1.000000" stroke="none" 
	d="
M115.023300,66.112213 
	C115.118874,66.153603 115.172462,66.329201 115.180222,66.776337 
	C114.980034,66.795677 114.929001,66.528526 115.023300,66.112213 
z"/>
<path fill="#7A4BC9" opacity="1.000000" stroke="none" 
	d="
M114.948280,90.190811 
	C114.981949,90.360146 114.812233,90.798096 114.318954,91.407654 
	C114.245224,91.205986 114.495056,90.832703 114.948280,90.190811 
z"/>
</svg>