<svg version="1.1" id="Layer_1" xmlns="http://www.w3.org/2000/svg" xmlns:xlink="http://www.w3.org/1999/xlink" x="0px" y="0px"
	 width="100%" viewBox="0 0 224 224" enable-background="new 0 0 224 224" xml:space="preserve">
<path fill="#2BDE83" opacity="1.000000" stroke="none" 
	d="
M106.000000,225.000000 
	C70.666672,225.000000 35.833336,225.000000 1.000005,225.000000 
	C1.000003,150.333344 1.000003,75.666679 1.000002,1.000015 
	C75.666656,1.000010 150.333313,1.000010 224.999969,1.000005 
	C224.999985,75.666649 224.999985,150.333298 225.000000,224.999969 
	C185.500000,225.000000 146.000000,225.000000 106.000000,225.000000 
M102.560944,92.260048 
	C94.723717,92.211090 86.886490,92.162140 78.372826,91.567764 
	C78.282036,87.086945 77.937988,82.593376 78.162697,78.128441 
	C78.463341,72.154587 81.800934,68.477966 87.906555,68.150620 
	C93.325310,67.860115 98.964066,67.935616 104.203697,69.151268 
	C108.920563,70.245636 111.498253,69.592567 112.712463,64.849815 
	C112.956688,63.895859 113.401558,62.971039 113.881927,62.103687 
	C115.809105,58.623940 114.773071,57.036076 111.007004,55.587059 
	C101.364616,51.877102 91.323990,52.773293 81.695999,53.707214 
	C66.277374,55.202824 58.044064,65.773491 58.022049,81.286537 
	C58.017151,84.736443 58.021328,88.186363 58.021328,92.005981 
	C51.934364,92.498146 46.415146,92.944397 40.210144,93.446106 
	C40.210144,95.755974 40.374931,98.053680 40.174557,100.319092 
	C39.800438,104.548943 41.298489,106.484886 45.812347,106.114273 
	C49.720032,105.793427 53.674927,106.047592 58.021114,106.047592 
	C58.021114,108.513474 58.021107,110.314552 58.021114,112.115623 
	C58.021198,128.255142 57.948383,144.395462 58.123684,160.533066 
	C58.143204,162.330215 59.509682,165.619873 60.361263,165.656387 
	C65.904144,165.893967 71.477379,165.423569 77.518562,164.974075 
	C77.638435,164.663681 77.758301,164.353302 78.061584,163.115799 
	C78.061584,144.212067 78.061584,125.308327 78.061584,106.045639 
	C85.375771,106.045639 91.852943,106.137947 98.323753,105.976044 
	C99.807091,105.938919 102.450134,105.185524 102.543396,104.491020 
	C103.051903,100.704483 102.930321,96.833321 102.560944,92.260048 
M163.264435,130.166046 
	C160.655899,127.625084 160.941055,125.382484 163.162109,122.458977 
	C169.205872,114.503716 174.931168,106.302948 180.637939,98.098808 
	C181.568985,96.760315 181.763504,94.909485 182.298431,93.295456 
	C180.615860,92.865730 178.927368,92.060974 177.251999,92.087425 
	C174.139832,92.136559 170.970688,93.223404 167.943253,92.869293 
	C163.719238,92.375244 161.709000,94.181076 159.863953,97.615417 
	C156.417572,104.030479 152.544052,110.216049 148.552597,116.999596 
	C144.189026,109.723511 140.200195,103.009605 136.131454,96.344467 
	C135.380966,95.115067 134.346924,93.151276 133.376251,93.109886 
	C126.686325,92.824661 119.978485,92.959854 111.569717,92.959854 
	C120.376312,105.228058 128.250534,116.197395 136.067947,127.087593 
	C135.247009,128.274994 134.696518,129.107544 134.110031,129.913940 
	C126.761505,140.018051 119.369965,150.091354 112.105309,160.255356 
	C111.240570,161.465210 111.060814,163.164642 110.563545,164.637131 
	C112.067146,165.092712 113.548630,165.818726 115.079239,165.943878 
	C117.728104,166.160477 120.458893,165.671829 123.063179,166.074692 
	C128.345978,166.891907 131.180374,164.456223 133.627563,160.036224 
	C137.875076,152.364609 142.698975,145.012115 147.605774,136.995468 
	C151.202087,142.707123 155.159546,147.594482 157.588547,153.150101 
	C162.204819,163.708466 169.471802,168.357208 180.887436,165.987930 
	C182.715027,165.608597 184.491348,164.982239 186.291382,164.470093 
	C185.648849,162.844650 185.294220,161.016983 184.317474,159.626282 
	C177.520004,149.947937 170.593491,140.360245 163.264435,130.166046 
z"/>
<path fill="#2D2E2D" opacity="1.000000" stroke="none" 
	d="
M77.040680,165.184860 
	C71.477379,165.423569 65.904144,165.893967 60.361263,165.656387 
	C59.509682,165.619873 58.143204,162.330215 58.123684,160.533066 
	C57.948383,144.395462 58.021198,128.255142 58.021114,112.115623 
	C58.021107,110.314552 58.021114,108.513474 58.021114,106.047592 
	C53.674927,106.047592 49.720032,105.793427 45.812347,106.114273 
	C41.298489,106.484886 39.800438,104.548943 40.174557,100.319092 
	C40.374931,98.053680 40.210144,95.755974 40.210144,93.446106 
	C46.415146,92.944397 51.934364,92.498146 58.021328,92.005981 
	C58.021328,88.186363 58.017151,84.736443 58.022049,81.286537 
	C58.044064,65.773491 66.277374,55.202824 81.695999,53.707214 
	C91.323990,52.773293 101.364616,51.877102 111.007004,55.587059 
	C114.773071,57.036076 115.809105,58.623940 113.881927,62.103687 
	C113.401558,62.971039 112.956688,63.895859 112.712463,64.849815 
	C111.498253,69.592567 108.920563,70.245636 104.203697,69.151268 
	C98.964066,67.935616 93.325310,67.860115 87.906555,68.150620 
	C81.800934,68.477966 78.463341,72.154587 78.162697,78.128441 
	C77.937988,82.593376 78.282036,87.086945 79.075150,92.024857 
	C87.526810,92.651726 95.276131,92.821503 103.025459,92.991272 
	C102.930321,96.833321 103.051903,100.704483 102.543396,104.491020 
	C102.450134,105.185524 99.807091,105.938919 98.323753,105.976044 
	C91.852943,106.137947 85.375771,106.045639 78.061584,106.045639 
	C78.061584,125.308327 78.061584,144.212067 77.823837,163.764801 
	C77.413902,164.677612 77.232094,164.934631 77.040680,165.184860 
z"/>
<path fill="#2D2E2D" opacity="1.000000" stroke="none" 
	d="
M163.486389,130.454773 
	C170.593491,140.360245 177.520004,149.947937 184.317474,159.626282 
	C185.294220,161.016983 185.648849,162.844650 186.291382,164.470093 
	C184.491348,164.982239 182.715027,165.608597 180.887436,165.987930 
	C169.471802,168.357208 162.204819,163.708466 157.588547,153.150101 
	C155.159546,147.594482 151.202087,142.707123 147.605774,136.995468 
	C142.698975,145.012115 137.875076,152.364609 133.627563,160.036224 
	C131.180374,164.456223 128.345978,166.891907 123.063179,166.074692 
	C120.458893,165.671829 117.728104,166.160477 115.079239,165.943878 
	C113.548630,165.818726 112.067146,165.092712 110.563545,164.637146 
	C111.060814,163.164642 111.240570,161.465210 112.105309,160.255356 
	C119.369965,150.091354 126.761505,140.018051 134.110031,129.913940 
	C134.696518,129.107544 135.247009,128.274994 136.067947,127.087593 
	C128.250534,116.197395 120.376312,105.228058 111.569717,92.959854 
	C119.978485,92.959854 126.686325,92.824661 133.376251,93.109886 
	C134.346924,93.151276 135.380966,95.115067 136.131454,96.344467 
	C140.200195,103.009605 144.189026,109.723511 148.552597,116.999596 
	C152.544052,110.216049 156.417572,104.030479 159.863953,97.615417 
	C161.709000,94.181076 163.719238,92.375244 167.943253,92.869293 
	C170.970688,93.223404 174.139832,92.136559 177.251999,92.087425 
	C178.927368,92.060974 180.615860,92.865730 182.298431,93.295456 
	C181.763504,94.909485 181.568985,96.760315 180.637939,98.098808 
	C174.931168,106.302948 169.205872,114.503716 163.162109,122.458977 
	C160.941055,125.382484 160.655899,127.625084 163.486389,130.454773 
z"/>
<path fill="#2D0E23" opacity="1.000000" stroke="none" 
	d="
M102.793198,92.625664 
	C95.276131,92.821503 87.526810,92.651726 79.413376,92.297562 
	C86.886490,92.162140 94.723717,92.211090 102.793198,92.625664 
z"/>
<path fill="#2D1425" opacity="1.000000" stroke="none" 
	d="
M77.279617,165.079468 
	C77.232094,164.934631 77.413902,164.677612 77.732132,164.228363 
	C77.758301,164.353302 77.638435,164.663681 77.279617,165.079468 
z"/>
</svg>