<?xml version="1.0" standalone="no"?>
<!DOCTYPE svg PUBLIC "-//W3C//DTD SVG 20010904//EN"
 "http://www.w3.org/TR/2001/REC-SVG-20010904/DTD/svg10.dtd">
<svg version="1.0" xmlns="http://www.w3.org/2000/svg"
 width="805.000000pt" height="804.000000pt" viewBox="0 0 805.000000 804.000000"
 preserveAspectRatio="xMidYMid meet">

<g transform="translate(0.000000,804.000000) scale(0.100000,-0.100000)"
fill="#000000" stroke="none">
<path d="M600 4505 c0 -8 11 -17 24 -21 48 -12 51 -38 51 -464 0 -358 -2 -398
-17 -422 -10 -15 -27 -29 -38 -33 -11 -3 -20 -13 -20 -21 0 -13 20 -15 132
-12 134 3 165 13 108 35 -46 17 -53 48 -58 264 -6 280 3 292 160 222 61 -27
101 -38 149 -41 63 -4 68 -2 102 28 21 18 37 41 37 53 0 11 3 18 6 15 3 -3 5
-110 4 -238 -1 -256 -7 -294 -55 -306 -14 -3 -24 -11 -22 -18 4 -13 248 -18
268 -5 8 5 0 13 -24 22 -59 25 -62 49 -62 462 0 403 4 439 56 458 57 22 24 32
-109 34 -104 1 -132 -1 -132 -12 0 -7 12 -16 26 -19 47 -12 57 -70 55 -308 -1
-44 -4 -56 -15 -52 -7 3 -21 -6 -30 -20 -21 -33 -78 -35 -155 -5 -109 41 -169
44 -245 13 -18 -7 -19 -1 -14 152 6 177 15 209 60 219 16 4 27 12 25 18 -2 8
-47 13 -135 15 -112 2 -132 0 -132 -13z"/>
<path d="M4920 4501 c0 -5 10 -11 23 -13 13 -2 29 -16 39 -38 16 -32 18 -74
18 -425 0 -351 -2 -393 -18 -425 -10 -22 -26 -36 -39 -38 -13 -2 -23 -8 -23
-13 0 -5 57 -9 131 -9 84 0 128 4 124 10 -3 6 -12 10 -19 10 -7 0 -21 9 -31
20 -24 27 -30 132 -33 575 l-2 350 -85 3 c-50 2 -85 -1 -85 -7z"/>
<path d="M7160 4501 c0 -5 10 -11 23 -13 40 -6 57 -59 57 -180 0 -60 -2 -108
-4 -108 -2 0 -25 10 -52 22 -72 32 -228 32 -299 0 -68 -31 -128 -92 -162 -166
-26 -56 -28 -71 -28 -176 0 -97 4 -123 22 -163 30 -63 103 -140 160 -167 97
-46 243 -34 323 25 l35 26 3 -30 3 -31 90 0 c49 0 89 2 89 6 0 3 -13 10 -29
15 -53 19 -55 34 -59 512 l-3 437 -85 0 c-46 0 -84 -4 -84 -9z m-25 -297 c18
-8 49 -32 69 -51 l36 -36 0 -221 c0 -220 0 -222 -25 -258 -54 -80 -178 -118
-270 -84 -65 25 -120 93 -146 178 -31 102 -24 258 15 344 51 112 123 159 229
149 32 -3 74 -12 92 -21z"/>
<path d="M5692 4436 c-9 -25 -24 -40 -52 -53 -22 -10 -39 -20 -39 -23 0 -3 17
-13 37 -22 26 -12 44 -30 56 -55 l18 -38 15 37 c11 27 26 42 54 55 40 19 50
33 23 33 -21 0 -84 63 -84 84 0 28 -15 18 -28 -18z"/>
<path d="M2466 4241 c-22 -5 -81 -7 -131 -6 -51 2 -98 -1 -106 -5 -15 -10 -16
-9 26 -30 51 -26 57 -64 53 -337 -3 -227 -4 -243 -24 -270 -12 -15 -31 -29
-43 -31 -12 -2 -20 -9 -18 -15 5 -15 269 -15 274 -1 2 5 -10 15 -27 21 -50 19
-54 42 -58 349 l-4 281 46 12 c63 15 167 14 209 -4 19 -8 44 -26 56 -40 40
-52 46 -90 46 -315 0 -199 -2 -218 -21 -250 -11 -20 -29 -36 -42 -38 -12 -2
-22 -8 -22 -13 0 -5 58 -9 135 -9 74 0 135 2 135 6 0 3 -13 10 -29 15 -49 17
-54 42 -60 309 -5 211 -8 250 -23 273 -10 14 -18 31 -18 36 0 18 112 44 187
44 122 -1 180 -46 203 -160 8 -34 10 -123 8 -237 -4 -200 -15 -248 -63 -266
-14 -5 -25 -12 -25 -15 0 -3 59 -5 130 -5 80 0 130 4 130 10 0 6 -9 10 -20 10
-11 0 -28 12 -37 27 -16 23 -19 60 -23 273 -6 262 -9 278 -62 326 -70 65 -200
80 -377 45 -97 -19 -105 -19 -135 -4 -35 19 -203 27 -270 14z"/>
<path d="M3661 4235 c-89 -25 -141 -73 -141 -131 0 -66 73 -110 114 -68 20 20
20 34 -1 49 -22 16 -21 70 2 95 10 11 41 27 68 35 131 39 252 -7 245 -93 -3
-33 -8 -39 -48 -59 -25 -12 -90 -34 -144 -48 -55 -15 -119 -36 -144 -47 -54
-26 -109 -79 -128 -124 -20 -49 -18 -160 5 -210 31 -68 110 -114 195 -114 119
0 184 54 247 205 12 28 13 25 19 -54 5 -75 9 -86 33 -107 22 -18 40 -24 78
-24 53 0 63 9 27 25 -41 18 -48 50 -48 213 0 178 -11 216 -62 227 -40 9 -51
-4 -37 -43 8 -23 8 -51 0 -102 -29 -183 -105 -287 -219 -297 -52 -5 -97 18
-134 67 -41 56 -35 181 13 253 50 75 100 100 299 147 47 11 96 29 110 39 34
25 39 75 9 107 -56 59 -245 91 -358 59z"/>
<path d="M4410 4240 c-30 -5 -99 -8 -152 -9 -54 -1 -98 -5 -98 -10 0 -5 10
-11 23 -13 13 -2 29 -16 39 -38 16 -30 18 -67 18 -283 0 -273 -6 -307 -57
-329 -26 -12 -24 -13 40 -16 37 -2 97 -2 135 0 67 3 67 3 37 18 -19 10 -34 28
-42 50 -14 42 -18 586 -4 594 21 13 135 22 188 15 70 -10 101 -31 133 -95 24
-48 25 -54 24 -264 -1 -237 -10 -281 -59 -300 -14 -5 -25 -12 -25 -15 0 -3 59
-5 130 -5 74 0 130 4 130 9 0 5 -10 11 -22 13 -15 2 -30 17 -42 41 -16 34 -19
70 -23 265 -3 125 -9 241 -14 259 -30 97 -166 139 -359 113z"/>
<path d="M6150 4240 c-30 -4 -99 -8 -152 -9 -58 -1 -98 -5 -98 -11 0 -5 8 -10
18 -10 56 0 77 -123 69 -400 -6 -199 -14 -233 -60 -252 -31 -12 -31 -13 36
-16 37 -1 97 -2 135 0 61 3 65 4 40 15 -51 23 -53 36 -56 350 l-3 293 28 11
c44 17 194 14 230 -4 89 -46 107 -114 101 -381 -4 -204 -11 -240 -56 -262 -44
-22 -34 -24 96 -24 81 0 132 4 132 10 0 6 -9 10 -20 10 -11 0 -28 12 -37 27
-16 23 -19 60 -23 273 -4 201 -8 250 -22 275 -20 37 -53 67 -96 90 -40 19
-179 28 -262 15z"/>
<path d="M1463 4228 c-7 -13 7 -28 26 -28 10 0 26 -9 37 -21 17 -19 19 -43 24
-268 5 -230 7 -249 27 -288 39 -72 100 -102 218 -104 113 -3 395 13 401 23 3
5 -7 13 -23 19 -61 21 -64 37 -64 368 0 221 -4 300 -12 303 -7 3 -48 4 -91 4
-83 -1 -111 -17 -62 -35 48 -19 51 -36 54 -343 l3 -287 -42 -11 c-24 -7 -77
-10 -119 -8 -90 4 -127 25 -159 91 -20 41 -21 60 -21 308 0 145 -4 270 -8 277
-9 13 -180 13 -189 0z"/>
<path d="M5350 4221 c0 -5 9 -11 20 -14 15 -4 20 -14 20 -37 0 -52 -49 -91
-153 -124 -87 -27 -127 -52 -127 -81 0 -18 9 -25 90 -78 79 -51 111 -100 144
-221 32 -116 42 -126 123 -126 35 0 63 4 63 10 0 6 -8 10 -18 10 -30 0 -52 33
-76 112 -13 40 -30 87 -39 103 -29 56 -90 104 -177 140 -46 19 -86 35 -87 35
-2 0 -3 7 -3 15 0 19 20 28 140 60 142 39 196 76 213 147 12 49 1 58 -69 58
-35 0 -64 -4 -64 -9z"/>
<path d="M5590 4221 c0 -5 10 -11 21 -13 12 -2 31 -16 43 -31 20 -27 21 -40
21 -285 0 -231 -2 -261 -19 -294 -11 -23 -25 -38 -37 -38 -10 0 -21 -4 -24
-10 -4 -6 40 -10 124 -10 81 0 131 4 131 10 0 6 -9 10 -20 10 -11 0 -28 12
-37 27 -16 24 -18 60 -21 335 l-3 308 -90 0 c-49 0 -89 -4 -89 -9z"/>
<path d="M1810 3965 c-13 -38 -52 -75 -81 -75 -11 0 -19 -7 -19 -15 0 -8 7
-15 15 -15 27 0 67 -33 81 -67 18 -42 28 -42 51 4 10 20 33 44 51 54 48 25 48
25 -1 49 -36 18 -47 30 -56 61 -15 48 -26 49 -41 4z"/>
</g>
</svg>
