<?xml version="1.0" encoding="utf-8"?>
<!-- Generator: Adobe Illustrator 19.2.1, SVG Export Plug-In . SVG Version: 6.00 Build 0)  -->
<svg version="1.1" id="layer" xmlns="http://www.w3.org/2000/svg" xmlns:xlink="http://www.w3.org/1999/xlink" x="0px" y="0px"
	 viewBox="0 0 652 652" style="enable-background:new 0 0 652 652;" xml:space="preserve">
<path d="M21.5,278.3h14.3v14.6H21.5V278.3z M35.1,303.8v56.3H22.4l0-56.3H35.1z M102.5,326.6v33.5H89.7v-31.7
	c0-8.7-4.7-14.3-14.1-14.3c-8.3,0-15.9,6.4-15.9,17.1v28.9H47v-56.3h12.8v5.2c3.4-4,9.9-6.7,17.9-6.7
	C92.8,302.3,102.5,311.9,102.5,326.6z M112.7,278.3H127v14.6h-14.3V278.3z M126.3,303.8v56.3h-12.8v-56.3H126.3z M155.1,289.7v14.1
	h17.6V315h-17.6v25.4c0,5.4,2.8,8.4,8.6,8.4h9v11.2h-9.2c-14.1,0-21.2-6.9-21.2-17.5V315H132v-11.2h10.4v-14.1H155.1z M178.9,278.3
	h14.3v14.6h-14.3V278.3z M192.5,303.8v56.3h-12.8v-56.3H192.5z M243.3,334.9h-15.9c-8,0-12.8,2.4-12.8,7.8c0,5.1,4.5,8.1,11.8,8.1
	c9.6,0,16.9-4.8,16.9-12.9V334.9z M256,324.7v35.4h-12.8v-5.2c-4.2,4.5-11,6.7-18.9,6.7c-13.5,0-22.5-6.5-22.5-18.9
	c0-13.9,12.5-18.1,25.7-18.1h15.8c0-7.7-6.6-10.6-14.8-10.6c-6.5,0-12.3,2-14.3,7.2h-13.6c3.3-12.6,14.9-19,27.8-19
	C244.7,302.3,256,310.3,256,324.7L256,324.7z M280,279.5v80.6h-12.8v-80.6H280z M291,278.3h14.3v14.6H291V278.3z M304.6,303.8v56.3
	h-12.8v-56.3H304.6z M312.8,360.1v-11.2l33.7-33.9h-33.7v-11.2h50.6V315l-34,33.9h34.2v11.2H312.8z M381.1,326.2h31
	c-1.2-7.5-7-12.5-15.1-12.5C388.8,313.7,382.1,318.8,381.1,326.2z M410.8,343.7h13.9c-4.1,11.1-14.8,18-27.1,18
	c-17.2,0-30-12.5-30-29.8c0-16.9,12.2-29.6,29.4-29.6c16.7,0,28.6,12.8,28.6,29.2c0,1.7,0,3.4-0.2,5.1h-44.5
	c1.4,8,8.3,13.4,16.7,13.4C403.2,349.8,408,347.9,410.8,343.7L410.8,343.7z M460.5,314.1c-9.9,0-16.7,8.2-16.7,18
	c0,9.6,6.9,17.8,16.7,17.8c8.8,0,17.4-5.9,17.4-17.8C477.8,320,469.3,314.1,460.5,314.1z M490.1,279.5v80.6h-12.8v-5.2
	c-4,4.2-10.6,6.7-17.7,6.7c-18.3,0-28.7-14.2-28.7-29.6c0-15.5,10.4-29.8,28.7-29.8c7.1,0,13.7,2.5,17.7,6.7v-29.5H490.1z
	 M566.6,354.2c-14.9-3.2-25.4-16.2-25.4-33.1c0-16.9,10.5-29.9,25.4-33.1V277c-21.4,3.3-37.1,21.2-37.1,44.2
	c0,22.9,15.6,40.8,37.1,44.2V354.2z M584.5,354.2c14.9-3.2,25.4-16.2,25.4-33.1c0-16.9-10.5-29.9-25.4-33.1V277
	c21.4,3.3,37.1,21.2,37.1,44.2c0,22.9-15.6,40.8-37.1,44.2V354.2z"/>
</svg>
