<svg version="1.1" id="Layer_1" xmlns="http://www.w3.org/2000/svg" xmlns:xlink="http://www.w3.org/1999/xlink" x="0px" y="0px"
	 width="100%" viewBox="0 0 400 400" enable-background="new 0 0 400 400" xml:space="preserve">
<path fill="#090909" opacity="1.000000" stroke="none" 
	d="
M220.000000,401.000000 
	C146.666672,401.000000 73.833336,401.000000 1.000000,401.000000 
	C1.000000,267.666656 1.000000,134.333328 1.000000,1.000000 
	C134.333328,1.000000 267.666656,1.000000 401.000000,1.000000 
	C401.000000,134.333328 401.000000,267.666656 401.000000,401.000000 
	C340.833344,401.000000 280.666656,401.000000 220.000000,401.000000 
M312.499908,254.183411 
	C324.826019,254.183395 337.152130,254.196030 349.478210,254.178635 
	C356.888824,254.168182 359.695465,251.463745 360.022858,244.101868 
	C360.392578,235.787781 362.519775,233.659210 370.694611,233.423264 
	C377.726288,233.220337 380.984070,229.968811 380.996582,223.017014 
	C381.022095,208.858719 381.028778,194.700287 380.993896,180.542038 
	C380.976501,173.477173 377.815277,170.210419 370.839111,170.032211 
	C364.180939,169.862122 359.570831,167.395126 359.894135,159.265701 
	C360.145874,152.935059 356.229950,148.903793 349.395996,149.020874 
	C328.081543,149.386078 306.756714,149.127380 285.435944,149.150970 
	C278.831696,149.158279 276.014343,151.952576 276.008331,158.520325 
	C275.982117,187.170120 275.985718,215.819962 276.005005,244.469772 
	C276.009796,251.576126 278.524628,254.132614 285.515228,254.167099 
	C294.176575,254.209793 302.838318,254.181198 312.499908,254.183411 
M55.363338,246.550766 
	C55.425171,231.227234 55.441399,215.903305 55.571110,200.580338 
	C55.623531,194.387527 58.015888,192.028290 63.911350,191.921646 
	C72.976707,191.757645 75.032570,193.326660 75.689209,200.193985 
	C75.965919,203.087982 76.427513,206.228653 77.812431,208.690506 
	C79.905960,212.412018 85.645203,213.689545 90.280968,212.336121 
	C95.130623,210.920258 96.818810,207.650589 97.255592,202.715805 
	C97.548752,199.403702 98.826286,194.286041 101.002670,193.445953 
	C104.956429,191.919861 110.322166,191.890488 114.276054,193.396317 
	C116.397873,194.204407 117.738937,199.479370 117.829964,202.782852 
	C118.215317,216.768112 117.955276,230.770142 118.024200,244.765594 
	C118.053719,250.760117 121.292915,253.992310 127.124092,254.167969 
	C136.609421,254.453659 139.777100,251.474609 139.814911,241.978333 
	C139.870651,227.982803 139.826553,213.986862 139.826111,199.991104 
	C139.825684,186.994995 139.907257,173.998215 139.797791,161.003021 
	C139.728973,152.833954 136.396484,149.263397 129.198318,149.155807 
	C121.162079,149.035706 118.272758,151.855042 118.005394,160.077606 
	C117.778511,167.055145 115.087769,169.851227 108.436371,170.021271 
	C100.129120,170.233658 97.549316,172.783752 97.073616,181.387741 
	C96.825714,185.871597 95.417480,189.569107 90.631592,190.855881 
	C82.055389,193.161804 76.462296,188.881989 76.244034,179.958786 
	C76.086143,173.503769 72.871735,170.242661 66.442467,170.014893 
	C57.405388,169.694702 55.950409,168.241714 55.579834,159.167053 
	C55.319233,152.785568 51.844238,149.263748 45.699177,149.153244 
	C37.928108,149.013519 34.111862,151.764496 34.065735,158.719894 
	C33.875675,187.376572 33.905720,216.035538 34.035378,244.692841 
	C34.062130,250.604584 36.775257,253.529358 41.600029,254.161942 
	C49.328526,255.175201 52.872852,253.373779 55.363338,246.550766 
M258.128815,173.601913 
	C255.550888,172.406067 252.970413,170.194183 250.395508,170.200653 
	C241.919418,170.221924 238.696762,166.136063 238.905426,158.893768 
	C239.091736,152.427094 235.496124,149.181870 229.100998,149.169235 
	C214.785995,149.140976 200.470917,149.147552 186.155884,149.160095 
	C178.864883,149.166489 176.040451,152.016663 175.868378,159.465424 
	C175.694977,166.971924 172.814499,169.845886 165.281052,170.028717 
	C158.085190,170.203384 155.019699,173.233414 155.005020,180.336411 
	C154.975449,194.651398 154.973953,208.966522 155.006195,223.281509 
	C155.021942,230.276428 157.953705,233.234604 164.899078,233.432846 
	C173.218353,233.670319 175.688065,236.178741 175.865067,244.570908 
	C176.004654,251.188354 178.980301,254.152756 185.716019,254.172165 
	C200.197403,254.213867 214.679077,254.221313 229.160416,254.173050 
	C235.829544,254.150818 238.809433,251.132767 238.991577,244.477432 
	C239.224167,235.978180 241.513275,233.670914 249.958572,233.423370 
	C256.826019,233.222076 259.980530,230.090927 259.995850,223.298157 
	C260.028168,208.983170 260.057068,194.667694 259.948242,180.353485 
	C259.932587,178.289139 259.146332,176.230652 258.128815,173.601913 
z"/>
<path fill="#FCFCFC" opacity="1.000000" stroke="none" 
	d="
M311.999878,254.183411 
	C302.838318,254.181198 294.176575,254.209793 285.515228,254.167099 
	C278.524628,254.132614 276.009796,251.576126 276.005005,244.469772 
	C275.985718,215.819962 275.982117,187.170120 276.008331,158.520325 
	C276.014343,151.952576 278.831696,149.158279 285.435944,149.150970 
	C306.756714,149.127380 328.081543,149.386078 349.395996,149.020874 
	C356.229950,148.903793 360.145874,152.935059 359.894135,159.265701 
	C359.570831,167.395126 364.180939,169.862122 370.839111,170.032211 
	C377.815277,170.210419 380.976501,173.477173 380.993896,180.542038 
	C381.028778,194.700287 381.022095,208.858719 380.996582,223.017014 
	C380.984070,229.968811 377.726288,233.220337 370.694611,233.423264 
	C362.519775,233.659210 360.392578,235.787781 360.022858,244.101868 
	C359.695465,251.463745 356.888824,254.168182 349.478210,254.178635 
	C337.152130,254.196030 324.826019,254.183395 311.999878,254.183411 
M300.577576,171.866409 
	C299.363586,174.460144 297.160889,177.030731 297.099579,179.651428 
	C296.757202,194.283981 296.772125,208.931168 297.001587,223.568085 
	C297.111023,230.548309 299.463470,232.857101 306.447540,232.943405 
	C321.248505,233.126312 336.056152,233.092636 350.856323,232.853836 
	C356.869324,232.756821 359.151489,230.030823 359.163788,224.099106 
	C359.193146,209.957672 359.174561,195.816132 359.173828,181.674637 
	C359.173370,172.197418 357.019653,170.041733 347.420776,170.026352 
	C335.109406,170.006638 322.796631,169.928467 310.487488,170.096283 
	C307.426575,170.138000 304.377228,171.028717 300.577576,171.866409 
z"/>
<path fill="#FBFBFB" opacity="1.000000" stroke="none" 
	d="
M55.209869,246.936707 
	C52.872852,253.373779 49.328526,255.175201 41.600029,254.161942 
	C36.775257,253.529358 34.062130,250.604584 34.035378,244.692841 
	C33.905720,216.035538 33.875675,187.376572 34.065735,158.719894 
	C34.111862,151.764496 37.928108,149.013519 45.699177,149.153244 
	C51.844238,149.263748 55.319233,152.785568 55.579834,159.167053 
	C55.950409,168.241714 57.405388,169.694702 66.442467,170.014893 
	C72.871735,170.242661 76.086143,173.503769 76.244034,179.958786 
	C76.462296,188.881989 82.055389,193.161804 90.631592,190.855881 
	C95.417480,189.569107 96.825714,185.871597 97.073616,181.387741 
	C97.549316,172.783752 100.129120,170.233658 108.436371,170.021271 
	C115.087769,169.851227 117.778511,167.055145 118.005394,160.077606 
	C118.272758,151.855042 121.162079,149.035706 129.198318,149.155807 
	C136.396484,149.263397 139.728973,152.833954 139.797791,161.003021 
	C139.907257,173.998215 139.825684,186.994995 139.826111,199.991104 
	C139.826553,213.986862 139.870651,227.982803 139.814911,241.978333 
	C139.777100,251.474609 136.609421,254.453659 127.124092,254.167969 
	C121.292915,253.992310 118.053719,250.760117 118.024200,244.765594 
	C117.955276,230.770142 118.215317,216.768112 117.829964,202.782852 
	C117.738937,199.479370 116.397873,194.204407 114.276054,193.396317 
	C110.322166,191.890488 104.956429,191.919861 101.002670,193.445953 
	C98.826286,194.286041 97.548752,199.403702 97.255592,202.715805 
	C96.818810,207.650589 95.130623,210.920258 90.280968,212.336121 
	C85.645203,213.689545 79.905960,212.412018 77.812431,208.690506 
	C76.427513,206.228653 75.965919,203.087982 75.689209,200.193985 
	C75.032570,193.326660 72.976707,191.757645 63.911350,191.921646 
	C58.015888,192.028290 55.623531,194.387527 55.571110,200.580338 
	C55.441399,215.903305 55.425171,231.227234 55.209869,246.936707 
z"/>
<path fill="#FCFCFC" opacity="1.000000" stroke="none" 
	d="
M258.422760,173.885681 
	C259.146332,176.230652 259.932587,178.289139 259.948242,180.353485 
	C260.057068,194.667694 260.028168,208.983170 259.995850,223.298157 
	C259.980530,230.090927 256.826019,233.222076 249.958572,233.423370 
	C241.513275,233.670914 239.224167,235.978180 238.991577,244.477432 
	C238.809433,251.132767 235.829544,254.150818 229.160416,254.173050 
	C214.679077,254.221313 200.197403,254.213867 185.716019,254.172165 
	C178.980301,254.152756 176.004654,251.188354 175.865067,244.570908 
	C175.688065,236.178741 173.218353,233.670319 164.899078,233.432846 
	C157.953705,233.234604 155.021942,230.276428 155.006195,223.281509 
	C154.973953,208.966522 154.975449,194.651398 155.005020,180.336411 
	C155.019699,173.233414 158.085190,170.203384 165.281052,170.028717 
	C172.814499,169.845886 175.694977,166.971924 175.868378,159.465424 
	C176.040451,152.016663 178.864883,149.166489 186.155884,149.160095 
	C200.470917,149.147552 214.785995,149.140976 229.100998,149.169235 
	C235.496124,149.181870 239.091736,152.427094 238.905426,158.893768 
	C238.696762,166.136063 241.919418,170.221924 250.395508,170.200653 
	C252.970413,170.194183 255.550888,172.406067 258.422760,173.885681 
M234.917084,231.623169 
	C235.999771,229.195114 237.966934,226.786133 238.019730,224.335892 
	C238.331467,209.864609 238.142014,195.383392 238.235565,180.906265 
	C238.293274,171.974182 236.473404,170.683212 227.645752,170.209381 
	C214.038834,169.479019 200.327438,169.431381 186.730118,170.251038 
	C178.328110,170.757507 176.576874,171.807022 176.388611,179.282333 
	C176.011810,194.243744 176.046768,209.227142 176.398483,224.190018 
	C176.557495,230.954010 179.104462,232.774750 185.898117,232.783264 
	C200.376709,232.801407 214.855408,232.812378 229.333801,232.756058 
	C230.952774,232.749756 232.569992,232.290344 234.917084,231.623169 
z"/>
<path fill="#0A0A0A" opacity="1.000000" stroke="none" 
	d="
M300.950073,171.697815 
	C304.377228,171.028717 307.426575,170.138000 310.487488,170.096283 
	C322.796631,169.928467 335.109406,170.006638 347.420776,170.026352 
	C357.019653,170.041733 359.173370,172.197418 359.173828,181.674637 
	C359.174561,195.816132 359.193146,209.957672 359.163788,224.099106 
	C359.151489,230.030823 356.869324,232.756821 350.856323,232.853836 
	C336.056152,233.092636 321.248505,233.126312 306.447540,232.943405 
	C299.463470,232.857101 297.111023,230.548309 297.001587,223.568085 
	C296.772125,208.931168 296.757202,194.283981 297.099579,179.651428 
	C297.160889,177.030731 299.363586,174.460144 300.950073,171.697815 
z"/>
<path fill="#0C0C0C" opacity="1.000000" stroke="none" 
	d="
M234.552551,231.832123 
	C232.569992,232.290344 230.952774,232.749756 229.333801,232.756058 
	C214.855408,232.812378 200.376709,232.801407 185.898117,232.783264 
	C179.104462,232.774750 176.557495,230.954010 176.398483,224.190018 
	C176.046768,209.227142 176.011810,194.243744 176.388611,179.282333 
	C176.576874,171.807022 178.328110,170.757507 186.730118,170.251038 
	C200.327438,169.431381 214.038834,169.479019 227.645752,170.209381 
	C236.473404,170.683212 238.293274,171.974182 238.235565,180.906265 
	C238.142014,195.383392 238.331467,209.864609 238.019730,224.335892 
	C237.966934,226.786133 235.999771,229.195114 234.552551,231.832123 
M206.682175,212.717484 
	C208.912308,212.266586 211.315079,212.198257 213.336990,211.285889 
	C217.669403,209.330933 219.229935,203.481445 217.411667,197.407364 
	C215.979904,192.624405 211.841919,190.347290 205.758316,190.994568 
	C200.169113,191.589233 197.258423,194.338394 196.679825,199.569214 
	C195.812790,207.407242 198.013596,210.549774 206.682175,212.717484 
z"/>
<path fill="#F8F8F8" opacity="1.000000" stroke="none" 
	d="
M206.281281,212.712128 
	C198.013596,210.549774 195.812790,207.407242 196.679825,199.569214 
	C197.258423,194.338394 200.169113,191.589233 205.758316,190.994568 
	C211.841919,190.347290 215.979904,192.624405 217.411667,197.407364 
	C219.229935,203.481445 217.669403,209.330933 213.336990,211.285889 
	C211.315079,212.198257 208.912308,212.266586 206.281281,212.712128 
z"/>
</svg>