<svg version="1.1" id="Layer_1" xmlns="http://www.w3.org/2000/svg" xmlns:xlink="http://www.w3.org/1999/xlink" x="0px" y="0px"
	 width="100%" viewBox="0 0 1000 1000" enable-background="new 0 0 1000 1000" xml:space="preserve">
<path fill="#020202" opacity="1.000000" stroke="none" 
	d="
M672.000000,1001.000000 
	C448.000000,1001.000000 224.500000,1001.000000 1.000000,1001.000000 
	C1.000000,667.666687 1.000000,334.333344 1.000000,1.000000 
	C334.333344,1.000000 667.666687,1.000000 1001.000000,1.000000 
	C1001.000000,334.333344 1001.000000,667.666687 1001.000000,1001.000000 
	C891.500000,1001.000000 782.000000,1001.000000 672.000000,1001.000000 
M710.947449,233.050552 
	C710.947449,233.050552 710.723511,233.259430 710.740845,232.521042 
	C709.243652,228.158783 705.604858,226.939331 701.196899,226.195175 
	C701.196899,226.195175 700.903687,225.928741 700.723083,225.536545 
	C700.359985,225.334656 699.996887,225.132751 699.187012,224.663269 
	C699.091736,224.518188 698.996399,224.373108 698.877014,223.498749 
	C696.886841,218.584229 692.347717,217.945450 688.000122,216.999222 
	C688.000122,216.999222 687.994019,217.013336 687.855164,216.316437 
	C686.476013,215.612656 685.096924,214.908875 683.319336,214.025681 
	C683.319336,214.025681 683.045044,213.685547 683.026367,213.042770 
	C681.814453,212.540466 680.602478,212.038162 678.818420,211.387466 
	C678.185547,210.956528 677.552673,210.525589 676.804810,209.411209 
	C672.282898,206.304321 667.933655,202.890076 663.169861,200.213745 
	C660.596313,198.767929 657.314331,198.583054 654.192566,197.843811 
	C654.192566,197.843811 654.134766,197.694504 654.018066,197.024445 
	C651.359131,193.028015 647.468994,191.799179 642.979797,192.012497 
	C642.979797,192.012497 642.928772,192.098801 642.867432,191.352615 
	C641.809570,190.258514 640.946716,188.646042 639.659424,188.161774 
	C634.605957,186.260712 629.446167,184.623383 624.270081,183.074463 
	C621.481873,182.240097 618.580505,181.783463 615.001404,181.063507 
	C599.283630,176.750305 583.737488,171.620316 567.816284,168.275528 
	C518.105469,157.832138 468.435822,159.308289 419.181305,171.362976 
	C379.192352,181.149963 342.175201,197.807419 308.156860,221.131729 
	C270.301514,247.086838 238.810776,279.203156 213.945343,317.757172 
	C194.670471,347.643066 180.336670,379.814758 171.164795,414.158783 
	C157.538849,465.181091 155.588074,516.678894 165.779221,568.594971 
	C176.436798,622.887329 198.896774,671.774841 233.158127,715.127747 
	C265.461914,756.003662 305.224762,787.844849 352.131683,810.522461 
	C395.274323,831.380127 440.892944,842.913574 488.822968,844.440308 
	C562.672913,846.792908 630.536804,827.471619 691.808472,786.187500 
	C706.355652,776.385681 719.434265,764.404358 733.806946,753.121765 
	C736.750488,750.179504 739.694031,747.237183 742.926086,744.224182 
	C742.926086,744.224182 743.052979,743.955627 743.512939,743.851746 
	C743.811890,743.672119 743.957275,743.407898 744.224731,742.922974 
	C744.224731,742.922974 744.302612,742.625549 744.907654,742.286743 
	C747.660706,739.232117 750.413757,736.177490 753.095520,733.083923 
	C753.095520,733.083923 753.119263,733.161499 753.768250,732.977356 
	C756.921387,729.165466 760.174805,725.431335 763.206238,721.524963 
	C768.934143,714.143738 774.534485,706.663635 780.168762,699.166748 
	C780.168762,699.166748 780.224670,699.191040 780.838928,698.956604 
	C783.207275,695.293274 785.575623,691.630005 787.998840,687.993652 
	C787.998840,687.993652 787.965210,687.942627 788.516724,687.676819 
	C788.737244,687.127869 788.957825,686.578857 789.388245,685.931519 
	C789.388245,685.931519 789.360901,685.701355 789.927612,685.300598 
	C793.696228,678.843201 797.610657,672.466003 801.209595,665.915405 
	C823.791260,624.812988 836.963806,580.790588 841.269348,534.166992 
	C845.150269,492.141113 841.688599,450.628998 829.666016,410.140747 
	C824.809814,393.786591 817.881226,378.047791 811.796509,361.498260 
	C811.681580,361.359741 811.566711,361.221252 811.373657,360.385773 
	C807.670349,353.177582 803.967102,345.969391 800.000000,338.998779 
	C800.000000,338.998779 800.263123,338.759827 800.158081,338.053192 
	C798.594238,335.454895 797.030396,332.856567 795.349670,329.761200 
	C795.138000,329.500427 794.926331,329.239655 794.575500,328.322571 
	C789.329163,320.235565 784.082825,312.148590 778.745178,303.648499 
	C778.620667,303.382080 778.428040,303.180634 777.902466,302.748840 
	C777.902466,302.748840 777.771057,302.374420 777.801086,301.594025 
	C776.585571,298.206573 776.419434,293.925293 770.808472,293.532654 
	C770.507690,293.047302 770.206909,292.561981 769.803467,291.485474 
	C769.395996,291.068848 768.988525,290.652222 768.063416,289.933472 
	C767.333252,288.991608 766.603088,288.049774 765.861633,286.376709 
	C762.660034,281.642731 759.582275,276.815674 756.153748,272.252197 
	C755.457092,271.324921 753.438477,271.390808 751.989746,271.011658 
	C751.989746,271.011658 751.999634,270.971252 751.964294,270.230469 
	C751.178162,266.756500 749.793518,263.944794 744.953674,264.012848 
	C743.310303,262.307007 741.666931,260.601166 740.287476,258.296753 
	C740.379822,251.197708 734.082336,251.322052 729.429871,248.953308 
	C729.133911,248.812485 728.932739,248.587097 728.827271,247.531311 
	C727.067932,242.319733 722.317383,240.943771 717.973389,239.027847 
	C717.973389,239.027847 717.942383,239.039307 717.756897,238.439194 
	C717.082153,238.015076 716.407471,237.590958 715.183044,236.953003 
	C714.450500,236.305878 713.717896,235.658752 712.773621,234.434677 
	C712.094971,234.047638 711.416260,233.660599 710.947449,233.050552 
z"/>
<path fill="#8768CF" opacity="1.000000" stroke="none" 
	d="
M789.360901,685.701355 
	C789.360901,685.701355 789.388245,685.931519 789.058472,686.163940 
	C788.474182,686.911743 788.219666,687.427185 787.965210,687.942627 
	C787.965210,687.942627 787.998840,687.993652 787.597961,687.980469 
	C781.915955,689.525269 779.978943,692.643311 780.224670,699.191040 
	C780.224670,699.191040 780.168762,699.166748 779.802185,699.150879 
	C777.580261,700.543091 775.414978,701.689026 773.946838,703.424622 
	C772.049622,705.667480 770.922302,708.550720 769.086975,710.858887 
	C764.546265,716.569397 759.691101,722.031067 755.192261,727.772888 
	C754.057434,729.221313 753.786987,731.347046 753.119263,733.161499 
	C753.119263,733.161499 753.095520,733.083923 752.779602,733.145569 
	C748.739258,735.476624 744.721802,737.492126 744.302612,742.625549 
	C744.302612,742.625549 744.224731,742.922974 743.900146,743.098633 
	C743.341858,743.455811 743.167664,743.682861 743.052979,743.955627 
	C743.052979,743.955627 742.926086,744.224182 742.373779,744.226074 
	C734.901794,745.769531 733.850159,746.889893 733.188416,753.425598 
	C719.434265,764.404358 706.355652,776.385681 691.808472,786.187500 
	C630.536804,827.471619 562.672913,846.792908 488.822968,844.440308 
	C440.892944,842.913574 395.274323,831.380127 352.131683,810.522461 
	C305.224762,787.844849 265.461914,756.003662 233.158127,715.127747 
	C198.896774,671.774841 176.436798,622.887329 165.779221,568.594971 
	C155.588074,516.678894 157.538849,465.181091 171.164795,414.158783 
	C180.336670,379.814758 194.670471,347.643066 213.945343,317.757172 
	C238.810776,279.203156 270.301514,247.086838 308.156860,221.131729 
	C342.175201,197.807419 379.192352,181.149963 419.181305,171.362976 
	C468.435822,159.308289 518.105469,157.832138 567.816284,168.275528 
	C583.737488,171.620316 599.283630,176.750305 615.639648,181.339493 
	C625.161499,185.109924 634.045166,188.604370 642.928772,192.098816 
	C642.928772,192.098801 642.979797,192.012497 643.122070,192.340088 
	C646.887878,194.343292 650.511292,196.018890 654.134766,197.694504 
	C654.134766,197.694504 654.192566,197.843811 654.492432,198.075562 
	C662.168091,202.236435 669.543945,206.165527 676.919800,210.094635 
	C677.552673,210.525589 678.185547,210.956528 679.284180,211.716858 
	C680.848267,212.592697 681.946655,213.139114 683.045044,213.685547 
	C683.045044,213.685547 683.319336,214.025681 683.669189,214.401489 
	C685.344055,215.522644 686.669067,216.267990 687.994019,217.013336 
	C687.994019,217.013336 688.000122,216.999222 688.137573,217.305984 
	C691.817078,219.817841 695.359131,222.022934 698.901123,224.228027 
	C698.996399,224.373108 699.091736,224.518188 699.466675,225.017731 
	C700.132141,225.557709 700.517883,225.743225 700.903687,225.928741 
	C700.903687,225.928741 701.196899,226.195175 701.550415,226.531281 
	C704.843811,228.998077 707.783691,231.128754 710.723511,233.259430 
	C710.723511,233.259430 710.947449,233.050552 710.957581,233.438690 
	C711.640259,234.221771 712.312805,234.616699 712.985352,235.011627 
	C713.717896,235.658752 714.450500,236.305878 715.584473,237.332275 
	C716.638000,238.154144 717.290222,238.596725 717.942383,239.039307 
	C717.942383,239.039307 717.973389,239.027847 718.107788,239.344696 
	C721.770203,242.533401 725.298218,245.405273 728.826233,248.277145 
	C728.932739,248.587097 729.133911,248.812485 729.781738,249.323944 
	C733.430298,252.761475 736.726868,255.828400 740.023499,258.895325 
	C741.666931,260.601166 743.310303,262.307007 745.355957,264.499268 
	C747.838623,266.980896 749.919128,268.976074 751.999634,270.971252 
	C751.999634,270.971252 751.989746,271.011658 752.125977,271.318115 
	C756.799072,276.785675 761.335999,281.946808 765.872925,287.107910 
	C766.603088,288.049774 767.333252,288.991608 768.388306,290.374146 
	C769.110779,291.235443 769.508423,291.656036 769.906067,292.076660 
	C770.206909,292.561981 770.507690,293.047302 771.081543,293.975647 
	C771.616821,294.870239 771.879028,295.321808 772.144043,296.166779 
	C775.038147,301.704407 777.929504,306.848602 781.050903,312.402039 
	C780.356506,312.783691 779.230774,313.402466 778.793762,313.642670 
	C781.106384,316.287720 782.875183,318.338165 784.680603,320.355927 
	C785.108826,320.834595 785.686279,321.176331 786.149841,321.627533 
	C787.938782,323.368774 789.653748,325.190796 791.509827,326.856110 
	C792.453430,327.702698 793.638672,328.279877 794.714661,328.978882 
	C794.926331,329.239655 795.138000,329.500427 795.339111,330.429199 
	C796.509888,333.949860 793.434326,339.543976 800.263123,338.759827 
	C800.263123,338.759827 800.000000,338.998779 800.098633,339.287506 
	C802.921692,346.292358 805.577332,353.038330 808.465027,359.683502 
	C808.793640,360.439789 810.424683,360.630035 811.451782,361.082764 
	C811.566711,361.221252 811.681580,361.359741 811.691101,362.073242 
	C812.134460,365.173462 812.409485,367.798828 813.288879,370.203125 
	C815.127441,375.229675 817.284851,380.139587 819.311279,385.097412 
	C818.890076,385.389435 818.468811,385.681458 818.047607,385.973480 
	C816.649841,384.206329 815.221497,382.462402 813.861572,380.666595 
	C811.778992,377.916504 809.743652,375.130646 807.686646,372.350952 
	C807.684937,372.341980 807.673218,372.328766 807.693359,371.981995 
	C806.851807,367.211487 807.388794,361.880554 800.943481,361.057800 
	C800.997559,361.002441 800.884827,361.108521 800.845825,360.737549 
	C799.149536,356.494537 799.190125,351.434845 793.762451,350.206451 
	C793.807678,350.180939 793.762756,350.274536 793.792908,349.879333 
	C794.001038,346.097504 792.447754,344.235840 788.989502,344.028381 
	C788.961914,344.028992 788.974854,343.975372 788.978271,343.600830 
	C788.807678,340.119507 787.405884,338.160187 784.043823,337.984131 
	C783.998840,337.977478 784.012451,337.887512 784.013672,337.511169 
	C783.831482,333.364532 781.884827,331.279541 778.070129,330.955322 
	C778.037842,330.961334 778.053223,330.897491 778.036621,330.532715 
	C775.082886,323.598663 772.852356,316.302551 763.431030,316.099426 
	C763.222168,316.010498 762.993530,315.618225 762.994873,315.257324 
	C761.825195,309.859222 750.112976,300.357819 744.332520,299.844879 
	C744.217285,299.840454 744.141479,299.622559 744.084229,299.294128 
	C740.410767,296.624756 736.794617,294.283783 733.124756,291.942657 
	C733.071167,291.942505 733.072449,291.835236 733.060974,291.476379 
	C732.097351,289.872070 731.388672,287.928192 730.152649,287.497406 
	C723.424622,285.152740 719.763794,277.209290 711.671814,277.449402 
	C711.274414,277.461151 710.899109,276.803375 710.448303,276.653381 
	C707.094788,275.537506 703.724792,274.471191 700.213989,273.373962 
	C700.068054,273.358551 699.929077,273.100006 699.786133,272.769379 
	C698.575745,272.015259 697.508240,271.591736 696.320251,271.208679 
	C696.199707,271.249176 696.031677,271.058350 695.920532,270.713318 
	C693.020630,268.901611 690.349487,267.120361 687.421631,266.025604 
	C677.528381,262.326416 667.736511,258.105316 657.539246,255.542526 
	C647.812622,253.097992 637.667603,251.906174 627.633606,251.199966 
	C614.591919,250.282074 601.474060,250.048660 588.397400,250.207611 
	C582.530090,250.278931 576.707581,252.214218 570.820557,252.949387 
	C563.576355,253.854019 556.244080,254.123917 549.044189,255.264160 
	C547.173645,255.560394 545.654724,258.076630 543.662842,259.710083 
	C542.900330,259.874359 542.449219,259.901733 541.671631,259.767395 
	C540.201904,259.583282 538.950928,259.242218 537.932068,259.587006 
	C525.837341,263.679779 513.458862,267.149292 501.804718,272.263367 
	C491.756287,276.672821 482.527130,282.957886 472.969482,288.472137 
	C469.732819,290.339539 466.562195,292.328522 463.428284,294.364960 
	C459.880249,296.670532 456.240662,298.884460 452.954102,301.527740 
	C450.270874,303.685852 448.081024,306.449829 445.614777,308.886902 
	C440.683838,313.759430 435.629303,318.511078 430.826294,323.505432 
	C429.793640,324.579285 429.610718,326.470306 429.042725,328.011719 
	C429.049072,328.038483 428.994019,328.039368 428.636414,328.054443 
	C423.559204,329.870483 420.403564,332.897552 420.166748,338.188904 
	C420.067596,338.087250 420.285248,338.269592 419.891663,338.240112 
	C417.838837,338.839783 415.552429,338.984131 414.627319,340.180847 
	C410.276001,345.809357 406.008514,351.547241 402.267212,357.590393 
	C398.368713,363.887421 394.993469,370.520325 391.607880,377.118469 
	C389.545868,381.137085 387.921021,385.378601 386.055115,389.499725 
	C384.211884,393.570709 382.194580,397.568176 380.507385,401.701447 
	C379.981720,402.989166 380.282318,404.614105 380.169250,406.504761 
	C379.558899,410.138855 379.339081,413.466187 378.355225,416.549744 
	C365.334717,457.356445 363.676727,498.724091 373.460266,540.283875 
	C385.677887,592.183411 412.287262,635.593628 453.863159,669.156067 
	C506.886902,711.960022 567.664612,729.323975 635.085388,719.590820 
	C708.229919,709.031372 764.359375,671.416687 803.640137,608.307129 
	C810.300049,594.403992 816.678467,580.688782 823.141846,566.865112 
	C823.226868,566.756775 823.191528,566.483521 823.436035,566.207458 
	C827.536194,550.601990 831.391724,535.272583 835.557495,519.805054 
	C839.804993,518.623962 840.191956,521.407776 839.922424,523.940430 
	C839.295166,529.835083 838.383240,535.707520 837.351440,541.547363 
	C836.929016,543.938293 835.836487,546.204285 835.174316,548.562378 
	C834.877991,549.617493 834.769775,550.761169 834.786621,551.861450 
	C834.833557,554.920959 835.424744,558.037842 835.017700,561.025391 
	C834.042664,568.182495 834.131226,575.610779 830.117493,582.126526 
	C829.425415,583.250061 829.901611,585.049561 829.662659,586.507996 
	C829.402222,588.097473 829.026489,589.681396 828.544434,591.218628 
	C827.362244,594.987793 825.983521,598.698059 824.889282,602.491272 
	C824.080811,605.293640 824.262817,608.437378 820.567383,609.689880 
	C819.722229,609.976379 819.003967,612.262695 819.131714,613.537964 
	C820.187805,624.076294 813.661011,632.431519 810.849976,641.809998 
	C808.709412,648.951294 804.122253,655.371765 800.524902,662.059875 
	C797.956970,666.833984 795.031738,671.424500 792.638916,676.280762 
	C791.180359,679.240723 790.429565,682.549316 789.360901,685.701355 
z"/>
<path fill="#7D64B4" opacity="1.000000" stroke="none" 
	d="
M807.688232,372.359985 
	C809.743652,375.130646 811.778992,377.916504 813.861572,380.666595 
	C815.221497,382.462402 816.649841,384.206329 818.047607,385.973480 
	C818.468811,385.681458 818.890076,385.389435 819.311279,385.097412 
	C817.284851,380.139587 815.127441,375.229675 813.288879,370.203125 
	C812.409485,367.798828 812.134460,365.173462 811.740723,362.338593 
	C817.881226,378.047791 824.809814,393.786591 829.666016,410.140747 
	C841.688599,450.628998 845.150269,492.141113 841.269348,534.166992 
	C836.963806,580.790588 823.791260,624.812988 801.209595,665.915405 
	C797.610657,672.466003 793.696228,678.843201 789.644287,685.500977 
	C790.429565,682.549316 791.180359,679.240723 792.638916,676.280762 
	C795.031738,671.424500 797.956970,666.833984 800.524902,662.059875 
	C804.122253,655.371765 808.709412,648.951294 810.849976,641.809998 
	C813.661011,632.431519 820.187805,624.076294 819.131714,613.537964 
	C819.003967,612.262695 819.722229,609.976379 820.567383,609.689880 
	C824.262817,608.437378 824.080811,605.293640 824.889282,602.491272 
	C825.983521,598.698059 827.362244,594.987793 828.544434,591.218628 
	C829.026489,589.681396 829.402222,588.097473 829.662659,586.507996 
	C829.901611,585.049561 829.425415,583.250061 830.117493,582.126526 
	C834.131226,575.610779 834.042664,568.182495 835.017700,561.025391 
	C835.424744,558.037842 834.833557,554.920959 834.786621,551.861450 
	C834.769775,550.761169 834.877991,549.617493 835.174316,548.562378 
	C835.836487,546.204285 836.929016,543.938293 837.351440,541.547363 
	C838.383240,535.707520 839.295166,529.835083 839.922424,523.940430 
	C840.191956,521.407776 839.804993,518.623962 835.525024,519.395264 
	C835.458618,515.390320 835.734924,511.657043 836.136963,507.489563 
	C839.038269,476.504059 836.049438,446.459961 826.372314,417.414429 
	C821.246338,402.029114 813.985413,387.355103 807.688232,372.359985 
z"/>
<path fill="#7A64AE" opacity="1.000000" stroke="none" 
	d="
M794.645081,328.650696 
	C793.638672,328.279877 792.453430,327.702698 791.509827,326.856110 
	C789.653748,325.190796 787.938782,323.368774 786.149841,321.627533 
	C785.686279,321.176331 785.108826,320.834595 784.680603,320.355927 
	C782.875183,318.338165 781.106384,316.287720 778.793762,313.642670 
	C779.230774,313.402466 780.356506,312.783691 781.050903,312.402039 
	C777.929504,306.848602 775.038147,301.704407 772.431396,296.339478 
	C774.401001,298.203979 776.086060,300.289185 777.771057,302.374420 
	C777.771057,302.374420 777.902466,302.748840 778.050537,303.119049 
	C778.301514,303.802216 778.514160,303.993011 778.836426,304.061615 
	C784.082825,312.148590 789.329163,320.235565 794.645081,328.650696 
z"/>
<path fill="#7D64B4" opacity="1.000000" stroke="none" 
	d="
M753.443726,733.069458 
	C753.786987,731.347046 754.057434,729.221313 755.192261,727.772888 
	C759.691101,722.031067 764.546265,716.569397 769.086975,710.858887 
	C770.922302,708.550720 772.049622,705.667480 773.946838,703.424622 
	C775.414978,701.689026 777.580261,700.543091 779.811768,699.179810 
	C774.534485,706.663635 768.934143,714.143738 763.206238,721.524963 
	C760.174805,725.431335 756.921387,729.165466 753.443726,733.069458 
z"/>
<path fill="#7A64AE" opacity="1.000000" stroke="none" 
	d="
M811.412720,360.734253 
	C810.424683,360.630035 808.793640,360.439789 808.465027,359.683502 
	C805.577332,353.038330 802.921692,346.292358 800.230591,339.168701 
	C803.967102,345.969391 807.670349,353.177582 811.412720,360.734253 
z"/>
<path fill="#190E2F" opacity="1.000000" stroke="none" 
	d="
M642.898071,191.725708 
	C634.045166,188.604370 625.161499,185.109924 616.004028,181.385925 
	C618.580505,181.783463 621.481873,182.240097 624.270081,183.074463 
	C629.446167,184.623383 634.605957,186.260712 639.659424,188.161774 
	C640.946716,188.646042 641.809570,190.258514 642.898071,191.725708 
z"/>
<path fill="#190E2F" opacity="1.000000" stroke="none" 
	d="
M676.862305,209.752930 
	C669.543945,206.165527 662.168091,202.236435 654.572144,198.068329 
	C657.314331,198.583054 660.596313,198.767929 663.169861,200.213745 
	C667.933655,202.890076 672.282898,206.304321 676.862305,209.752930 
z"/>
<path fill="#190E2F" opacity="1.000000" stroke="none" 
	d="
M765.867310,286.742310 
	C761.335999,281.946808 756.799072,276.785675 752.145752,271.311707 
	C753.438477,271.390808 755.457092,271.324921 756.153748,272.252197 
	C759.582275,276.815674 762.660034,281.642731 765.867310,286.742310 
z"/>
<path fill="#7D64B4" opacity="1.000000" stroke="none" 
	d="
M780.531799,699.073853 
	C779.978943,692.643311 781.915955,689.525269 787.570557,687.966980 
	C785.575623,691.630005 783.207275,695.293274 780.531799,699.073853 
z"/>
<path fill="#190E2F" opacity="1.000000" stroke="none" 
	d="
M740.155518,258.596039 
	C736.726868,255.828400 733.430298,252.761475 730.003784,249.389679 
	C734.082336,251.322052 740.379822,251.197708 740.155518,258.596039 
z"/>
<path fill="#7D64B4" opacity="1.000000" stroke="none" 
	d="
M733.497681,753.273682 
	C733.850159,746.889893 734.901794,745.769531 742.229492,744.261414 
	C739.694031,747.237183 736.750488,750.179504 733.497681,753.273682 
z"/>
<path fill="#190E2F" opacity="1.000000" stroke="none" 
	d="
M728.826782,247.904236 
	C725.298218,245.405273 721.770203,242.533401 718.102783,239.360443 
	C722.317383,240.943771 727.067932,242.319733 728.826782,247.904236 
z"/>
<path fill="#190E2F" opacity="1.000000" stroke="none" 
	d="
M698.889038,223.863388 
	C695.359131,222.022934 691.817078,219.817841 688.131226,217.309769 
	C692.347717,217.945450 696.886841,218.584229 698.889038,223.863388 
z"/>
<path fill="#190E2F" opacity="1.000000" stroke="none" 
	d="
M654.076416,197.359467 
	C650.511292,196.018890 646.887878,194.343292 643.085571,192.374451 
	C647.468994,191.799179 651.359131,193.028015 654.076416,197.359467 
z"/>
<path fill="#190E2F" opacity="1.000000" stroke="none" 
	d="
M710.732178,232.890244 
	C707.783691,231.128754 704.843811,228.998077 701.743774,226.574310 
	C705.604858,226.939331 709.243652,228.158783 710.732178,232.890244 
z"/>
<path fill="#7D64B4" opacity="1.000000" stroke="none" 
	d="
M744.605103,742.456177 
	C744.721802,737.492126 748.739258,735.476624 752.815186,733.165039 
	C750.413757,736.177490 747.660706,739.232117 744.605103,742.456177 
z"/>
<path fill="#7A64AE" opacity="1.000000" stroke="none" 
	d="
M800.210571,338.406494 
	C793.434326,339.543976 796.509888,333.949860 795.397522,330.677704 
	C797.030396,332.856567 798.594238,335.454895 800.210571,338.406494 
z"/>
<path fill="#190E2F" opacity="1.000000" stroke="none" 
	d="
M777.786072,301.984222 
	C776.086060,300.289185 774.401001,298.203979 772.428650,295.946045 
	C771.879028,295.321808 771.616821,294.870239 771.302979,294.161682 
	C776.419434,293.925293 776.585571,298.206573 777.786072,301.984222 
z"/>
<path fill="#190E2F" opacity="1.000000" stroke="none" 
	d="
M751.981934,270.600891 
	C749.919128,268.976074 747.838623,266.980896 745.620056,264.678436 
	C749.793518,263.944794 751.178162,266.756500 751.981934,270.600891 
z"/>
<path fill="#190E2F" opacity="1.000000" stroke="none" 
	d="
M683.035706,213.364166 
	C681.946655,213.139114 680.848267,212.592697 679.570190,211.791061 
	C680.602478,212.038162 681.814453,212.540466 683.035706,213.364166 
z"/>
<path fill="#190E2F" opacity="1.000000" stroke="none" 
	d="
M687.924561,216.664886 
	C686.669067,216.267990 685.344055,215.522644 683.868408,214.491211 
	C685.096924,214.908875 686.476013,215.612656 687.924561,216.664886 
z"/>
<path fill="#190E2F" opacity="1.000000" stroke="none" 
	d="
M717.849609,238.739258 
	C717.290222,238.596725 716.638000,238.154144 715.859253,237.439194 
	C716.407471,237.590958 717.082153,238.015076 717.849609,238.739258 
z"/>
<path fill="#190E2F" opacity="1.000000" stroke="none" 
	d="
M712.879517,234.723145 
	C712.312805,234.616699 711.640259,234.221771 710.852661,233.550201 
	C711.416260,233.660599 712.094971,234.047638 712.879517,234.723145 
z"/>
<path fill="#190E2F" opacity="1.000000" stroke="none" 
	d="
M700.813354,225.732635 
	C700.517883,225.743225 700.132141,225.557709 699.690063,225.151520 
	C699.996887,225.132751 700.359985,225.334656 700.813354,225.732635 
z"/>
<path fill="#7D64B4" opacity="1.000000" stroke="none" 
	d="
M788.240967,687.809692 
	C788.219666,687.427185 788.474182,686.911743 788.953491,686.213135 
	C788.957825,686.578857 788.737244,687.127869 788.240967,687.809692 
z"/>
<path fill="#190E2F" opacity="1.000000" stroke="none" 
	d="
M769.854736,291.781067 
	C769.508423,291.656036 769.110779,291.235443 768.647095,290.525208 
	C768.988525,290.652222 769.395996,291.068848 769.854736,291.781067 
z"/>
<path fill="#190E2F" opacity="1.000000" stroke="none" 
	d="
M778.790771,303.855042 
	C778.514160,303.993011 778.301514,303.802216 778.182983,303.266724 
	C778.428040,303.180634 778.620667,303.382080 778.790771,303.855042 
z"/>
<path fill="#7D64B4" opacity="1.000000" stroke="none" 
	d="
M743.282959,743.903687 
	C743.167664,743.682861 743.341858,743.455811 743.762329,743.166748 
	C743.957275,743.407898 743.811890,743.672119 743.282959,743.903687 
z"/>
<path fill="#020203" opacity="1.000000" stroke="none" 
	d="
M807.686584,372.350983 
	C813.985413,387.355103 821.246338,402.029114 826.372314,417.414429 
	C836.049438,446.459961 839.038269,476.504059 835.809814,507.695984 
	C833.271484,518.680969 831.199646,529.028198 829.094910,539.368713 
	C827.955444,544.966736 826.786255,550.559143 825.579895,556.143127 
	C824.832947,559.600525 823.990845,563.037415 823.191528,566.483521 
	C823.191528,566.483521 823.226868,566.756775 822.785278,566.947388 
	C821.403687,568.193787 820.085449,569.097107 819.587585,570.331238 
	C817.143555,576.390320 814.967834,582.557129 812.575623,588.638000 
	C812.041138,589.996643 810.844788,591.086365 810.248901,592.430969 
	C807.888367,597.757385 805.645325,603.135864 803.358643,608.494995 
	C764.359375,671.416687 708.229919,709.031372 635.085388,719.590820 
	C567.664612,729.323975 506.886902,711.960022 453.863159,669.156067 
	C412.287262,635.593628 385.677887,592.183411 373.460266,540.283875 
	C363.676727,498.724091 365.334717,457.356445 378.355225,416.549744 
	C379.339081,413.466187 379.558899,410.138855 380.391571,406.473175 
	C382.203857,403.301300 384.126556,400.724884 385.254395,397.837982 
	C393.748352,376.096619 406.367615,356.806885 420.285248,338.269592 
	C420.285248,338.269592 420.067596,338.087250 420.472107,338.059509 
	C423.582428,334.700958 426.288208,331.370148 428.994019,328.039368 
	C428.994019,328.039368 429.049072,328.038483 429.348999,327.894592 
	C447.656097,308.901611 467.846466,292.921539 490.849182,280.500641 
	C507.144135,271.701782 524.386719,265.388214 541.998169,259.929108 
	C542.449219,259.901733 542.900330,259.874359 544.052795,259.711273 
	C547.824890,258.815887 550.872070,257.939850 553.969788,257.314209 
	C593.598328,249.310745 632.801941,250.836746 671.488342,262.803406 
	C679.731873,265.353333 687.853760,268.296387 696.031677,271.058350 
	C696.031677,271.058350 696.199707,271.249176 696.552246,271.461426 
	C697.912903,272.149139 698.920959,272.624573 699.929077,273.100006 
	C699.929077,273.100006 700.068054,273.358551 700.449951,273.626831 
	C711.578735,279.875183 722.325623,285.855225 733.072449,291.835236 
	C733.072449,291.835236 733.071167,291.942505 733.268188,292.235962 
	C737.023987,294.893799 740.582764,297.258179 744.141479,299.622559 
	C744.141479,299.622559 744.217285,299.840454 744.482910,300.122681 
	C750.830200,305.476013 756.911865,310.547119 762.993530,315.618225 
	C762.993530,315.618225 763.222168,316.010498 763.602966,316.390930 
	C768.673584,321.480042 773.363403,326.188782 778.053223,330.897491 
	C778.053223,330.897491 778.037842,330.961334 778.174561,331.269470 
	C780.211731,333.680908 782.112122,335.784210 784.012451,337.887512 
	C784.012451,337.887512 783.998840,337.977478 784.127563,338.299713 
	C785.829163,340.406433 787.401978,342.190887 788.974854,343.975372 
	C788.974854,343.975372 788.961914,344.028992 789.070435,344.355835 
	C790.706909,346.546631 792.234802,348.410583 793.762756,350.274536 
	C793.762756,350.274536 793.807678,350.180939 793.826904,350.554016 
	C796.192322,354.320923 798.538574,357.714722 800.884827,361.108521 
	C800.884827,361.108521 800.997559,361.002441 801.020935,361.401794 
	C803.253906,365.310364 805.463562,368.819580 807.673218,372.328796 
	C807.673218,372.328766 807.684937,372.341980 807.686584,372.350983 
z"/>
<path fill="#7D64B4" opacity="1.000000" stroke="none" 
	d="
M695.920532,270.713318 
	C687.853760,268.296387 679.731873,265.353333 671.488342,262.803406 
	C632.801941,250.836746 593.598328,249.310745 553.969788,257.314209 
	C550.872070,257.939850 547.824890,258.815887 544.364258,259.574341 
	C545.654724,258.076630 547.173645,255.560394 549.044189,255.264160 
	C556.244080,254.123917 563.576355,253.854019 570.820557,252.949387 
	C576.707581,252.214218 582.530090,250.278931 588.397400,250.207611 
	C601.474060,250.048660 614.591919,250.282074 627.633606,251.199966 
	C637.667603,251.906174 647.812622,253.097992 657.539246,255.542526 
	C667.736511,258.105316 677.528381,262.326416 687.421631,266.025604 
	C690.349487,267.120361 693.020630,268.901611 695.920532,270.713318 
z"/>
<path fill="#7D64B4" opacity="1.000000" stroke="none" 
	d="
M541.671631,259.767395 
	C524.386719,265.388214 507.144135,271.701782 490.849182,280.500641 
	C467.846466,292.921539 447.656097,308.901611 429.342651,327.867828 
	C429.610718,326.470306 429.793640,324.579285 430.826294,323.505432 
	C435.629303,318.511078 440.683838,313.759430 445.614777,308.886902 
	C448.081024,306.449829 450.270874,303.685852 452.954102,301.527740 
	C456.240662,298.884460 459.880249,296.670532 463.428284,294.364960 
	C466.562195,292.328522 469.732819,290.339539 472.969482,288.472137 
	C482.527130,282.957886 491.756287,276.672821 501.804718,272.263367 
	C513.458862,267.149292 525.837341,263.679779 537.932068,259.587006 
	C538.950928,259.242218 540.201904,259.583282 541.671631,259.767395 
z"/>
<path fill="#7D64B4" opacity="1.000000" stroke="none" 
	d="
M419.891663,338.240112 
	C406.367615,356.806885 393.748352,376.096619 385.254395,397.837982 
	C384.126556,400.724884 382.203857,403.301300 380.426941,406.053101 
	C380.282318,404.614105 379.981720,402.989166 380.507385,401.701447 
	C382.194580,397.568176 384.211884,393.570709 386.055115,389.499725 
	C387.921021,385.378601 389.545868,381.137085 391.607880,377.118469 
	C394.993469,370.520325 398.368713,363.887421 402.267212,357.590393 
	C406.008514,351.547241 410.276001,345.809357 414.627319,340.180847 
	C415.552429,338.984131 417.838837,338.839783 419.891663,338.240112 
z"/>
<path fill="#150B31" opacity="1.000000" stroke="none" 
	d="
M823.436035,566.207458 
	C823.990845,563.037415 824.832947,559.600525 825.579895,556.143127 
	C826.786255,550.559143 827.955444,544.966736 829.094910,539.368713 
	C831.199646,529.028198 833.271484,518.680969 835.684082,508.130157 
	C835.734924,511.657043 835.458618,515.390320 835.214844,519.533386 
	C831.391724,535.272583 827.536194,550.601990 823.436035,566.207458 
z"/>
<path fill="#150B31" opacity="1.000000" stroke="none" 
	d="
M803.640137,608.307129 
	C805.645325,603.135864 807.888367,597.757385 810.248901,592.430969 
	C810.844788,591.086365 812.041138,589.996643 812.575623,588.638000 
	C814.967834,582.557129 817.143555,576.390320 819.587585,570.331238 
	C820.085449,569.097107 821.403687,568.193787 822.700256,567.055786 
	C816.678467,580.688782 810.300049,594.403992 803.640137,608.307129 
z"/>
<path fill="#7D64B4" opacity="1.000000" stroke="none" 
	d="
M733.060974,291.476379 
	C722.325623,285.855225 711.578735,279.875183 700.595947,273.642242 
	C703.724792,274.471191 707.094788,275.537506 710.448303,276.653381 
	C710.899109,276.803375 711.274414,277.461151 711.671814,277.449402 
	C719.763794,277.209290 723.424622,285.152740 730.152649,287.497406 
	C731.388672,287.928192 732.097351,289.872070 733.060974,291.476379 
z"/>
<path fill="#7D64B4" opacity="1.000000" stroke="none" 
	d="
M762.994873,315.257324 
	C756.911865,310.547119 750.830200,305.476013 744.598145,300.127106 
	C750.112976,300.357819 761.825195,309.859222 762.994873,315.257324 
z"/>
<path fill="#7D64B4" opacity="1.000000" stroke="none" 
	d="
M778.036621,330.532715 
	C773.363403,326.188782 768.673584,321.480042 763.811829,316.479858 
	C772.852356,316.302551 775.082886,323.598663 778.036621,330.532715 
z"/>
<path fill="#7D64B4" opacity="1.000000" stroke="none" 
	d="
M428.636414,328.054443 
	C426.288208,331.370148 423.582428,334.700958 420.571228,338.161194 
	C420.403564,332.897552 423.559204,329.870483 428.636414,328.054443 
z"/>
<path fill="#7D64B4" opacity="1.000000" stroke="none" 
	d="
M807.693359,371.981995 
	C805.463562,368.819580 803.253906,365.310364 800.966858,361.457153 
	C807.388794,361.880554 806.851807,367.211487 807.693359,371.981995 
z"/>
<path fill="#7D64B4" opacity="1.000000" stroke="none" 
	d="
M800.845825,360.737549 
	C798.538574,357.714722 796.192322,354.320923 793.781677,350.579529 
	C799.190125,351.434845 799.149536,356.494537 800.845825,360.737549 
z"/>
<path fill="#7D64B4" opacity="1.000000" stroke="none" 
	d="
M744.084229,299.294128 
	C740.582764,297.258179 737.023987,294.893799 733.321838,292.236084 
	C736.794617,294.283783 740.410767,296.624756 744.084229,299.294128 
z"/>
<path fill="#7D64B4" opacity="1.000000" stroke="none" 
	d="
M784.013672,337.511169 
	C782.112122,335.784210 780.211731,333.680908 778.206909,331.263489 
	C781.884827,331.279541 783.831482,333.364532 784.013672,337.511169 
z"/>
<path fill="#7D64B4" opacity="1.000000" stroke="none" 
	d="
M793.792908,349.879333 
	C792.234802,348.410583 790.706909,346.546631 789.098022,344.355255 
	C792.447754,344.235840 794.001038,346.097504 793.792908,349.879333 
z"/>
<path fill="#7D64B4" opacity="1.000000" stroke="none" 
	d="
M788.978271,343.600830 
	C787.401978,342.190887 785.829163,340.406433 784.172607,338.306396 
	C787.405884,338.160187 788.807678,340.119507 788.978271,343.600830 
z"/>
<path fill="#7D64B4" opacity="1.000000" stroke="none" 
	d="
M699.786133,272.769379 
	C698.920959,272.624573 697.912903,272.149139 696.672791,271.420959 
	C697.508240,271.591736 698.575745,272.015259 699.786133,272.769379 
z"/>
</svg>