<svg version="1.1" id="Layer_1" xmlns="http://www.w3.org/2000/svg" xmlns:xlink="http://www.w3.org/1999/xlink" x="0px" y="0px"
	 width="100%" viewBox="0 0 168 168" enable-background="new 0 0 168 168" xml:space="preserve">
<path fill="#F8F8F8" opacity="1.000000" stroke="none" 
	d="
M169.000000,29.000000 
	C169.000000,66.020897 169.000000,103.041786 168.645187,140.599304 
	C168.018600,141.314514 167.577850,141.438126 167.499283,141.679596 
	C163.368774,154.372360 154.928329,162.781342 142.370987,167.187485 
	C141.775330,167.396484 141.450790,168.378159 141.000000,169.000000 
	C103.979103,169.000000 66.958206,169.000000 29.400490,168.644745 
	C28.685717,168.018478 28.560625,167.573914 28.322252,167.501312 
	C15.423754,163.573380 6.672855,155.476715 2.806247,142.362122 
	C2.634935,141.781082 1.621287,141.448380 0.999999,141.000000 
	C1.000000,103.979103 1.000000,66.958206 1.353963,29.401306 
	C2.071718,28.550859 2.634050,28.305166 2.770213,27.911911 
	C6.032194,18.490910 11.533864,10.951152 20.524845,6.183531 
	C23.445015,4.635063 26.180202,2.737752 29.000000,1.000000 
	C66.020897,1.000000 103.041786,1.000000 140.599487,1.355220 
	C141.315292,1.982243 141.439255,2.422745 141.681168,2.501679 
	C154.364105,6.640075 163.005402,14.842656 167.188782,27.627289 
	C167.382416,28.219049 168.377945,28.548422 169.000000,29.000000 
M81.035309,92.277000 
	C85.201088,93.381706 89.567123,94.021637 93.482132,95.708374 
	C98.411682,97.832214 98.924820,102.717979 95.218575,106.158821 
	C90.644325,110.405525 75.530632,110.918274 71.936417,102.339302 
	C71.509491,101.320297 70.264465,99.904015 69.419380,99.918068 
	C63.035145,100.024155 56.656090,100.441811 50.020481,100.775002 
	C51.849682,110.223625 56.365295,116.925140 64.424202,120.232819 
	C69.851280,122.460281 75.846451,123.908325 81.693810,124.376236 
	C92.531326,125.243454 102.838684,123.303619 111.660652,116.020897 
	C121.568138,107.842064 124.078590,87.924271 106.384331,81.121658 
	C102.840866,79.759369 99.090973,78.898125 95.392242,77.983978 
	C89.750534,76.589607 83.916573,75.779739 78.483154,73.832039 
	C76.338928,73.063408 73.750977,69.914452 73.737106,67.833565 
	C73.723099,65.731880 76.212471,62.792957 78.364449,61.648315 
	C85.353104,57.931023 92.879837,60.417145 97.453712,67.070114 
	C98.117554,68.035713 99.703537,68.942757 100.836922,68.912361 
	C106.277168,68.766418 111.708519,68.289047 117.484360,67.906799 
	C116.430428,59.202606 112.209625,52.844193 104.963234,49.424297 
	C90.908730,42.791348 76.501518,42.949852 62.743225,50.388401 
	C54.878532,54.640514 51.476616,61.970474 52.182850,70.918373 
	C52.852627,79.404427 57.545593,85.199585 65.330254,88.133621 
	C70.108582,89.934563 75.237228,90.806000 81.035309,92.277000 
z"/>
<path fill="#FFFFFF" opacity="1.000000" stroke="none" 
	d="
M28.531342,1.000000 
	C26.180202,2.737752 23.445015,4.635063 20.524845,6.183531 
	C11.533864,10.951152 6.032194,18.490910 2.770213,27.911911 
	C2.634050,28.305166 2.071718,28.550859 1.353963,28.932648 
	C1.000000,19.740208 1.000000,10.480416 1.000000,1.000000 
	C10.019698,1.000000 19.041191,1.000000 28.531342,1.000000 
z"/>
<path fill="#FFFFFF" opacity="1.000000" stroke="none" 
	d="
M141.468658,169.000000 
	C141.450790,168.378159 141.775330,167.396484 142.370987,167.187485 
	C154.928329,162.781342 163.368774,154.372360 167.499283,141.679596 
	C167.577850,141.438126 168.018600,141.314514 168.645187,141.067963 
	C169.000000,150.259796 169.000000,159.519577 169.000000,169.000000 
	C159.980301,169.000000 150.958817,169.000000 141.468658,169.000000 
z"/>
<path fill="#FFFFFF" opacity="1.000000" stroke="none" 
	d="
M169.000000,28.531342 
	C168.377945,28.548422 167.382416,28.219049 167.188782,27.627289 
	C163.005402,14.842656 154.364105,6.640075 141.681168,2.501679 
	C141.439255,2.422745 141.315292,1.982243 141.068146,1.355220 
	C150.259796,1.000000 159.519577,1.000000 169.000000,1.000000 
	C169.000000,10.019698 169.000000,19.041191 169.000000,28.531342 
z"/>
<path fill="#FFFFFF" opacity="1.000000" stroke="none" 
	d="
M0.999999,141.468658 
	C1.621287,141.448380 2.634935,141.781082 2.806247,142.362122 
	C6.672855,155.476715 15.423754,163.573380 28.322252,167.501312 
	C28.560625,167.573914 28.685717,168.018478 28.931831,168.644745 
	C19.740210,169.000000 10.480418,169.000000 1.000000,169.000000 
	C1.000000,159.980301 1.000000,150.958817 0.999999,141.468658 
z"/>
<path fill="#191919" opacity="1.000000" stroke="none" 
	d="
M80.621941,92.185913 
	C75.237228,90.806000 70.108582,89.934563 65.330254,88.133621 
	C57.545593,85.199585 52.852627,79.404427 52.182850,70.918373 
	C51.476616,61.970474 54.878532,54.640514 62.743225,50.388401 
	C76.501518,42.949852 90.908730,42.791348 104.963234,49.424297 
	C112.209625,52.844193 116.430428,59.202606 117.484360,67.906799 
	C111.708519,68.289047 106.277168,68.766418 100.836922,68.912361 
	C99.703537,68.942757 98.117554,68.035713 97.453712,67.070114 
	C92.879837,60.417145 85.353104,57.931023 78.364449,61.648315 
	C76.212471,62.792957 73.723099,65.731880 73.737106,67.833565 
	C73.750977,69.914452 76.338928,73.063408 78.483154,73.832039 
	C83.916573,75.779739 89.750534,76.589607 95.392242,77.983978 
	C99.090973,78.898125 102.840866,79.759369 106.384331,81.121658 
	C124.078590,87.924271 121.568138,107.842064 111.660652,116.020897 
	C102.838684,123.303619 92.531326,125.243454 81.693810,124.376236 
	C75.846451,123.908325 69.851280,122.460281 64.424202,120.232819 
	C56.365295,116.925140 51.849682,110.223625 50.020481,100.775002 
	C56.656090,100.441811 63.035145,100.024155 69.419380,99.918068 
	C70.264465,99.904015 71.509491,101.320297 71.936417,102.339302 
	C75.530632,110.918274 90.644325,110.405525 95.218575,106.158821 
	C98.924820,102.717979 98.411682,97.832214 93.482132,95.708374 
	C89.567123,94.021637 85.201088,93.381706 80.621941,92.185913 
z"/>
</svg>