<?xml version="1.0" encoding="utf-8"?>
<!-- Generator: Adobe Illustrator 22.1.0, SVG Export Plug-In . SVG Version: 6.00 Build 0)  -->
<svg version="1.1" id="All" xmlns="http://www.w3.org/2000/svg" xmlns:xlink="http://www.w3.org/1999/xlink" x="0px" y="0px"
	 viewBox="0 0 324 324" style="enable-background:new 0 0 324 324;" xml:space="preserve">
<style type="text/css">
	.st0{fill:#28A055;}
	.st1{enable-background:new    ;}
	.st2{fill:#FFFFFF;}
</style>
<rect id="bg" class="st0" width="324" height="324"/>
<g id="USV" class="st1">
	<path class="st2" d="M70.5,164.9v-38.2H89v37.4c0,9.1,2.2,13.5,10.1,13.5c7.6,0,10.1-4.1,10.1-13.8v-37.2h18.6v38
		c0,18.7-11,27.4-28.7,27.4C80.9,192.1,70.5,182.9,70.5,164.9z"/>
	<path class="st2" d="M135.1,170.6h17.5c0.5,4.6,2.5,8.4,10.2,8.4c5.3,0,8.3-2.6,8.3-6.4c0-4-2.4-5-10.2-6.2
		c-18.2-2.2-24.3-7.6-24.3-20.5c0-11.6,9.5-20.1,24.9-20.1c15.5,0,24.2,6.5,25.4,20.1h-17.1c-0.6-4.6-3.2-6.9-8.3-6.9
		c-4.9,0-7.5,2.2-7.5,5.5c0,3.6,2,5.2,10,6.3c16.3,1.8,24.7,6,24.7,20c0,11.8-9.4,21.4-25.9,21.4
		C144.9,192.1,135.7,184.5,135.1,170.6z"/>
	<path class="st2" d="M190.1,126.7H210l13,45.2l13.1-45.2h17.3l-21,64.3h-21L190.1,126.7z"/>
</g>
</svg>
