<svg version="1.1" id="Layer_1" xmlns="http://www.w3.org/2000/svg" xmlns:xlink="http://www.w3.org/1999/xlink" x="0px" y="0px"
	 width="100%" viewBox="0 0 250 250" enable-background="new 0 0 250 250" xml:space="preserve">
<path fill="#17111F" opacity="1.000000" stroke="none" 
	d="
M163.000000,251.000000 
	C108.666672,251.000000 54.833340,251.000000 1.000007,251.000000 
	C1.000005,167.666672 1.000005,84.333351 1.000002,1.000018 
	C84.333321,1.000012 167.666641,1.000012 250.999969,1.000006 
	C250.999969,84.333313 250.999969,167.666626 250.999985,250.999969 
	C221.833328,251.000000 192.666672,251.000000 163.000000,251.000000 
M99.643608,70.176201 
	C90.427528,69.639427 90.439651,69.642616 88.174995,78.246231 
	C86.387115,85.038536 84.564659,91.821739 82.757561,98.608994 
	C82.318199,98.613556 81.878838,98.618126 81.439484,98.622696 
	C79.253136,90.691750 76.944031,82.791687 74.937592,74.815491 
	C74.068794,71.361809 72.443268,69.984535 68.745445,69.864227 
	C64.306885,69.719833 62.093784,71.126617 61.126766,75.589638 
	C59.425732,83.440331 57.208817,91.179245 54.841423,100.391106 
	C53.915009,97.919540 53.497219,97.015839 53.233940,96.069160 
	C51.139439,88.537857 49.144054,80.978172 46.967869,73.470787 
	C46.015541,70.185440 41.598621,68.779625 36.891804,70.127357 
	C32.922661,71.263878 34.869034,74.167854 35.451607,76.241791 
	C38.195320,86.009300 41.185211,95.707458 44.060474,105.438278 
	C46.685284,114.321465 46.668404,114.191322 56.056507,114.070450 
	C59.719151,114.023293 61.387169,112.627708 62.178394,109.065437 
	C63.608070,102.628754 65.490364,96.292610 67.183647,89.914482 
	C70.152924,96.096497 72.223145,102.337914 73.671005,108.720512 
	C74.662384,113.090805 77.068336,114.327721 81.147476,114.049011 
	C85.165810,113.774437 89.387970,115.040047 90.944229,109.077950 
	C93.799492,98.139305 97.398468,87.396591 100.471085,76.511139 
	C100.997116,74.647560 100.448524,72.480652 99.643608,70.176201 
M167.207413,74.216698 
	C165.727997,70.340179 161.288712,68.503876 156.689468,70.189796 
	C152.601273,71.688393 155.098526,74.721977 155.709747,76.910286 
	C158.707733,87.643494 162.241119,98.233696 165.007050,109.022675 
	C166.624390,115.331375 171.172165,113.714195 175.270630,114.032661 
	C179.180511,114.336472 181.388275,113.066734 182.251877,108.858902 
	C183.561172,102.479385 185.519516,96.233086 187.202133,89.930191 
	C190.239624,96.412506 191.856049,102.986115 194.106781,109.334831 
	C194.770599,111.207260 196.992462,113.130547 198.924332,113.791954 
	C201.156601,114.556206 203.913101,114.259888 206.332977,113.821892 
	C207.696045,113.575172 209.593414,112.351837 209.965759,111.165390 
	C213.849716,98.789139 217.484848,86.334587 221.158554,73.892761 
	C221.901382,71.377060 220.874939,70.260117 218.248749,69.980270 
	C211.568283,69.268425 210.472610,69.916267 208.771683,76.247108 
	C206.769547,83.699013 204.754913,91.147552 202.745712,98.597557 
	C201.061310,97.000557 200.478775,95.363655 200.019119,93.692940 
	C198.254196,87.278137 196.419525,80.879280 194.833557,74.419807 
	C194.016113,71.090492 192.205719,70.095833 188.840073,69.865669 
	C184.022308,69.536194 182.018097,71.430542 181.039032,75.989563 
	C179.378403,83.722328 177.159134,91.335129 175.174652,98.998352 
	C174.816330,98.979248 174.457993,98.960144 174.099655,98.941048 
	C171.889343,90.953842 169.679016,82.966644 167.207413,74.216698 
M140.078537,165.433884 
	C139.943344,165.531265 139.819183,165.674805 139.669281,165.710632 
	C139.560303,165.736679 139.326630,165.646881 139.302353,165.563797 
	C136.879959,157.274490 134.513062,148.968735 132.044083,140.693405 
	C131.022690,137.269943 125.952698,135.349792 121.727585,137.370926 
	C120.612396,137.904388 119.982491,141.284271 120.449913,142.996780 
	C123.472557,154.071121 127.129570,164.975601 130.024872,176.080154 
	C131.670563,182.391998 136.257187,180.689499 140.336868,181.029846 
	C144.292755,181.359879 146.411728,179.952148 147.269974,175.790237 
	C148.580917,169.433167 150.533112,163.208328 152.213058,156.927353 
	C155.251892,163.458908 157.251205,169.923080 158.917282,176.472000 
	C159.770340,179.825134 161.584747,181.225449 164.943741,181.020065 
	C166.936066,180.898254 169.034119,181.339523 170.910614,180.854416 
	C172.444763,180.457809 174.578766,179.335678 174.979019,178.070755 
	C178.893448,165.699692 182.515015,153.235596 186.180832,140.786484 
	C186.948685,138.178848 185.680389,137.224731 183.143509,136.977585 
	C176.377197,136.318375 175.482254,136.856888 173.737137,143.348541 
	C171.742523,150.768295 169.736908,158.185089 167.736084,165.603180 
	C167.299606,165.604401 166.863129,165.605637 166.426651,165.606857 
	C164.202866,157.504181 161.840958,149.435791 159.816498,141.283600 
	C158.874954,137.492111 156.557678,136.863510 153.190826,136.927002 
	C149.943817,136.988220 147.455597,137.222229 146.549133,141.211624 
	C144.744568,149.153687 142.491119,156.993759 140.078537,165.433884 
M105.477341,97.808372 
	C108.358536,110.889381 114.774841,115.538605 129.171509,114.977013 
	C138.511856,114.612663 145.318100,109.448067 148.023422,100.672173 
	C151.372604,89.807571 148.663071,77.768967 141.715469,72.670189 
	C141.314667,72.376053 140.889008,72.113602 140.462540,71.856934 
	C125.732262,62.991371 107.510033,71.576462 105.338287,88.494484 
	C104.982285,91.267769 105.309921,94.128799 105.477341,97.808372 
M91.602104,135.996826 
	C77.371605,136.588181 69.733437,145.434219 70.126106,160.868958 
	C70.487312,175.067383 78.068649,182.167313 92.694641,182.004379 
	C106.402336,181.851685 114.394325,173.085556 114.283623,158.324188 
	C114.170486,143.237091 107.286858,136.175262 91.602104,135.996826 
z"/>
<path fill="#3FAB45" opacity="1.000000" stroke="none" 
	d="
M100.019989,70.315033 
	C100.448524,72.480652 100.997116,74.647560 100.471085,76.511139 
	C97.398468,87.396591 93.799492,98.139305 90.944229,109.077950 
	C89.387970,115.040047 85.165810,113.774437 81.147476,114.049011 
	C77.068336,114.327721 74.662384,113.090805 73.671005,108.720512 
	C72.223145,102.337914 70.152924,96.096497 67.183647,89.914482 
	C65.490364,96.292610 63.608070,102.628754 62.178394,109.065437 
	C61.387169,112.627708 59.719151,114.023293 56.056507,114.070450 
	C46.668404,114.191322 46.685284,114.321465 44.060474,105.438278 
	C41.185211,95.707458 38.195320,86.009300 35.451607,76.241791 
	C34.869034,74.167854 32.922661,71.263878 36.891804,70.127357 
	C41.598621,68.779625 46.015541,70.185440 46.967869,73.470787 
	C49.144054,80.978172 51.139439,88.537857 53.233940,96.069160 
	C53.497219,97.015839 53.915009,97.919540 54.841423,100.391106 
	C57.208817,91.179245 59.425732,83.440331 61.126766,75.589638 
	C62.093784,71.126617 64.306885,69.719833 68.745445,69.864227 
	C72.443268,69.984535 74.068794,71.361809 74.937592,74.815491 
	C76.944031,82.791687 79.253136,90.691750 81.439484,98.622696 
	C81.878838,98.618126 82.318199,98.613556 82.757561,98.608994 
	C84.564659,91.821739 86.387115,85.038536 88.174995,78.246231 
	C90.439651,69.642616 90.427528,69.639427 100.019989,70.315033 
z"/>
<path fill="#3FAB45" opacity="1.000000" stroke="none" 
	d="
M167.338043,74.598068 
	C169.679016,82.966644 171.889343,90.953842 174.099655,98.941048 
	C174.457993,98.960144 174.816330,98.979248 175.174652,98.998352 
	C177.159134,91.335129 179.378403,83.722328 181.039032,75.989563 
	C182.018097,71.430542 184.022308,69.536194 188.840073,69.865669 
	C192.205719,70.095833 194.016113,71.090492 194.833557,74.419807 
	C196.419525,80.879280 198.254196,87.278137 200.019119,93.692940 
	C200.478775,95.363655 201.061310,97.000557 202.745712,98.597557 
	C204.754913,91.147552 206.769547,83.699013 208.771683,76.247108 
	C210.472610,69.916267 211.568283,69.268425 218.248749,69.980270 
	C220.874939,70.260117 221.901382,71.377060 221.158554,73.892761 
	C217.484848,86.334587 213.849716,98.789139 209.965759,111.165390 
	C209.593414,112.351837 207.696045,113.575172 206.332977,113.821892 
	C203.913101,114.259888 201.156601,114.556206 198.924332,113.791954 
	C196.992462,113.130547 194.770599,111.207260 194.106781,109.334831 
	C191.856049,102.986115 190.239624,96.412506 187.202133,89.930191 
	C185.519516,96.233086 183.561172,102.479385 182.251877,108.858902 
	C181.388275,113.066734 179.180511,114.336472 175.270630,114.032661 
	C171.172165,113.714195 166.624390,115.331375 165.007050,109.022675 
	C162.241119,98.233696 158.707733,87.643494 155.709747,76.910286 
	C155.098526,74.721977 152.601273,71.688393 156.689468,70.189796 
	C161.288712,68.503876 165.727997,70.340179 167.338043,74.598068 
z"/>
<path fill="#3FAB45" opacity="1.000000" stroke="none" 
	d="
M140.250824,165.154922 
	C142.491119,156.993759 144.744568,149.153687 146.549133,141.211624 
	C147.455597,137.222229 149.943817,136.988220 153.190826,136.927002 
	C156.557678,136.863510 158.874954,137.492111 159.816498,141.283600 
	C161.840958,149.435791 164.202866,157.504181 166.426651,165.606857 
	C166.863129,165.605637 167.299606,165.604401 167.736084,165.603180 
	C169.736908,158.185089 171.742523,150.768295 173.737137,143.348541 
	C175.482254,136.856888 176.377197,136.318375 183.143509,136.977585 
	C185.680389,137.224731 186.948685,138.178848 186.180832,140.786484 
	C182.515015,153.235596 178.893448,165.699692 174.979019,178.070755 
	C174.578766,179.335678 172.444763,180.457809 170.910614,180.854416 
	C169.034119,181.339523 166.936066,180.898254 164.943741,181.020065 
	C161.584747,181.225449 159.770340,179.825134 158.917282,176.472000 
	C157.251205,169.923080 155.251892,163.458908 152.213058,156.927353 
	C150.533112,163.208328 148.580917,169.433167 147.269974,175.790237 
	C146.411728,179.952148 144.292755,181.359879 140.336868,181.029846 
	C136.257187,180.689499 131.670563,182.391998 130.024872,176.080154 
	C127.129570,164.975601 123.472557,154.071121 120.449913,142.996780 
	C119.982491,141.284271 120.612396,137.904388 121.727585,137.370926 
	C125.952698,135.349792 131.022690,137.269943 132.044083,140.693405 
	C134.513062,148.968735 136.879959,157.274490 139.302353,165.563797 
	C139.326630,165.646881 139.560303,165.736679 139.669281,165.710632 
	C139.819183,165.674805 139.943344,165.531265 140.250824,165.154922 
z"/>
<path fill="#3FAB45" opacity="1.000000" stroke="none" 
	d="
M105.399475,97.378830 
	C105.309921,94.128799 104.982285,91.267769 105.338287,88.494484 
	C107.510033,71.576462 125.732262,62.991371 140.462540,71.856934 
	C140.889008,72.113602 141.314667,72.376053 141.715469,72.670189 
	C148.663071,77.768967 151.372604,89.807571 148.023422,100.672173 
	C145.318100,109.448067 138.511856,114.612663 129.171509,114.977013 
	C114.774841,115.538605 108.358536,110.889381 105.399475,97.378830 
M137.043076,94.196777 
	C136.570343,90.617012 136.942886,86.590729 135.361298,83.596718 
	C134.062241,81.137550 130.512756,78.635315 127.829613,78.484444 
	C125.128311,78.332558 121.073044,80.352333 119.705139,82.661201 
	C116.152679,88.657433 116.539215,95.418694 119.562477,101.696793 
	C120.314415,103.258263 122.337708,104.590828 124.070976,105.228188 
	C130.609375,107.632530 135.220001,103.900063 137.043076,94.196777 
z"/>
<path fill="#3FAB45" opacity="1.000000" stroke="none" 
	d="
M92.059570,135.995483 
	C107.286858,136.175262 114.170486,143.237091 114.283623,158.324188 
	C114.394325,173.085556 106.402336,181.851685 92.694641,182.004379 
	C78.068649,182.167313 70.487312,175.067383 70.126106,160.868958 
	C69.733437,145.434219 77.371605,136.588181 92.059570,135.995483 
M82.607590,161.943054 
	C82.688583,162.601273 82.737503,163.265305 82.855591,163.916794 
	C83.911629,169.743378 86.911186,172.740112 91.802292,172.873642 
	C96.731995,173.008209 100.550735,170.207565 101.365814,164.626862 
	C101.972061,160.475983 101.717552,156.052811 101.003548,151.895676 
	C100.242981,147.467361 96.847633,145.131332 92.362663,145.173584 
	C87.959534,145.215073 84.602493,147.394516 83.519279,151.796692 
	C82.779190,154.804443 82.825142,158.005600 82.607590,161.943054 
z"/>
<path fill="#181420" opacity="1.000000" stroke="none" 
	d="
M137.019379,94.633133 
	C135.220001,103.900063 130.609375,107.632530 124.070976,105.228188 
	C122.337708,104.590828 120.314415,103.258263 119.562477,101.696793 
	C116.539215,95.418694 116.152679,88.657433 119.705139,82.661201 
	C121.073044,80.352333 125.128311,78.332558 127.829613,78.484444 
	C130.512756,78.635315 134.062241,81.137550 135.361298,83.596718 
	C136.942886,86.590729 136.570343,90.617012 137.019379,94.633133 
z"/>
<path fill="#181520" opacity="1.000000" stroke="none" 
	d="
M82.563629,161.531677 
	C82.825142,158.005600 82.779190,154.804443 83.519279,151.796692 
	C84.602493,147.394516 87.959534,145.215073 92.362663,145.173584 
	C96.847633,145.131332 100.242981,147.467361 101.003548,151.895676 
	C101.717552,156.052811 101.972061,160.475983 101.365814,164.626862 
	C100.550735,170.207565 96.731995,173.008209 91.802292,172.873642 
	C86.911186,172.740112 83.911629,169.743378 82.855591,163.916794 
	C82.737503,163.265305 82.688583,162.601273 82.563629,161.531677 
z"/>
</svg>